<?xml version="1.0" encoding="UTF-8"?>
<svg version="1.1" xmlns="http://www.w3.org/2000/svg" width="1920" height="1701">
<path d="M0 0 C1.49853516 0.72896484 1.49853516 0.72896484 3.02734375 1.47265625 C16.79978079 8.81911384 24.35375583 19.89859622 32 33 C32.97658954 34.66002698 33.95320554 36.32003846 34.93032837 37.97975159 C37.87270493 42.97921152 40.80520968 47.98436021 43.72958374 52.99436951 C47.46670728 59.39589402 51.23620158 65.77629659 55.0625 72.125 C59.59489236 79.6476687 64.08827937 87.19257896 68.5625 94.75 C69.23104004 95.87881592 69.89958008 97.00763184 70.58837891 98.1706543 C73.49180025 103.07335197 76.39448288 107.97648611 79.29589844 112.88037109 C81.67470877 116.90043623 84.05540942 120.91937775 86.4375 124.9375 C86.83595123 125.60972595 87.23440247 126.2819519 87.64492798 126.97454834 C93.28272163 136.48098035 98.99082066 145.94171018 104.75 155.375 C110.81519353 165.3095525 116.70027504 175.33673402 122.48632812 185.43652344 C127.25803867 193.75300523 132.1539691 201.98779141 137.10302734 210.19970703 C142.18570368 218.63420235 147.22605695 227.09295148 152.25 235.5625 C153.05403339 236.91756367 153.85806986 238.27262551 154.66210938 239.62768555 C157.51849726 244.44221914 160.37374392 249.25742929 163.22900391 254.07263184 C166.06863653 258.86133635 168.9089545 263.64963358 171.75 268.4375 C172.14729309 269.10714783 172.54458618 269.77679565 172.95391846 270.46673584 C178.1501907 279.22363765 183.37383148 287.96336611 188.625 296.6875 C194.41860418 306.31454287 200.11670989 315.99479058 205.78771973 325.6942749 C210.56689626 333.86727038 215.38176163 342.01653848 220.26904297 350.12548828 C224.986355 357.95809606 229.64924462 365.82264426 234.3125 373.6875 C240.05456328 383.37169429 245.81778801 393.04216567 251.625 402.6875 C257.35119333 412.2023484 262.98207428 421.77004398 268.58557129 431.35736084 C274.06143271 440.72370611 279.60248143 450.04801941 285.19970703 459.3425293 C288.67288941 465.11311029 292.12960186 470.89289208 295.5625 476.6875 C295.95486343 477.34978607 296.34722687 478.01207214 296.7514801 478.69442749 C298.3632102 481.41542484 299.97471604 484.13655497 301.58615112 486.85772705 C307.30391016 496.50865274 313.09253515 506.11316537 318.9375 515.6875 C324.28971367 524.45581958 329.50480256 533.28348283 334.56005859 542.22607422 C338.89233091 549.86945084 343.40287233 557.39918034 347.9375 564.92382812 C354.02305109 575.02338413 360.05353234 585.15501438 366.0612793 595.30102539 C366.85854138 596.64730991 367.65582306 597.99358283 368.453125 599.33984375 C368.84119827 599.99523636 369.22927155 600.65062897 369.62910461 601.32588196 C372.04182437 605.39635566 374.47484026 609.45392486 376.921875 613.50390625 C388.14009235 632.11885189 396.29787823 648.42083133 391.12890625 670.765625 C386.74592514 685.50700093 378.03303004 697.96367641 364.67578125 706 C351.67232754 713.02147274 339.15853533 714.44640546 324.59594727 714.38818359 C322.87144642 714.39225692 321.1469482 714.39760304 319.42245483 714.40411377 C314.77154843 714.41770377 310.12084334 714.41252306 305.46993375 714.40297651 C300.58199636 714.39533532 295.69407521 714.40243795 290.80613708 714.40713501 C282.59948663 714.41258016 274.39291739 714.40543415 266.1862793 714.39111328 C256.72612925 714.37479463 247.26617329 714.38007461 237.80602795 714.3965925 C229.65531501 714.41024933 221.50466017 714.41210641 213.35393947 714.40427649 C208.49838932 714.39962228 203.64293009 714.39891254 198.78738594 714.40888596 C194.21947747 714.4176145 189.65181677 714.41142729 185.08393478 714.39420319 C183.41716738 714.39026933 181.75037876 714.39131851 180.08362007 714.39799118 C161.75965622 714.4645304 146.22727581 711.37934604 132.44921875 698.5390625 C126.03005024 691.8844221 121.10175579 685.26070445 116.5625 677.1875 C115.33699956 675.04756851 114.11039407 672.90826957 112.8828125 670.76953125 C112.24891602 669.6604541 111.61501953 668.55137695 110.96191406 667.40869141 C107.67524263 661.69832474 104.30511207 656.03788319 100.9375 650.375 C99.58160902 648.09139626 98.22640523 645.80738529 96.87109375 643.5234375 C96.21737793 642.42225586 95.56366211 641.32107422 94.89013672 640.18652344 C92.0872952 635.46129902 89.29325701 630.73089438 86.5 626 C79.6950842 614.4778963 72.8720187 602.96656423 66.04833984 591.45556641 C63.36245971 586.92461034 60.67728038 582.39323905 57.9921875 577.86181641 C56.66554304 575.62310388 55.33872051 573.38449685 54.01171875 571.14599609 C50.26379221 564.82320727 46.52035562 558.49780214 42.78204346 552.16932678 C39.79491437 547.11451984 36.79257062 542.06881923 33.78955078 537.0234375 C32.144126 534.24350018 30.52014508 531.45231908 28.90234375 528.65625 C19.15062937 511.96659017 8.139712 501.20752848 -11 496 C-14.51944126 495.17567358 -14.51944126 495.17567358 -18 495 C-18.76054688 494.93683594 -19.52109375 494.87367188 -20.3046875 494.80859375 C-34.64349819 494.14909356 -49.33983051 498.89856079 -60.1875 508.25 C-71.20130657 518.72865295 -78.23888136 531.05315567 -79.21875 546.43359375 C-79.77140907 568.93142359 -68.90675544 584.67353542 -57.62011719 603.1262207 C-53.03747113 610.62008941 -48.53009556 618.14976432 -44.125 625.75 C-38.65708155 635.17772018 -33.12915498 644.56786085 -27.5625 653.9375 C-27.15549866 654.62259644 -26.74849731 655.30769287 -26.3291626 656.0135498 C-20.47773601 665.85963615 -14.59549947 675.68690541 -8.69458008 685.50341797 C-1.24176093 697.91057226 6.13404451 710.36346602 13.51660156 722.8125 C17.31219585 729.21289919 21.10943419 735.61232219 24.90759277 742.01119995 C26.07836449 743.98392035 27.24867756 745.95691225 28.41894531 747.92993164 C32.92301644 755.5206873 37.44805667 763.0985355 41.99560547 770.66333008 C43.16691487 772.61318216 44.33620187 774.5642568 45.50048828 776.51831055 C55.37673195 793.07713175 65.77084219 805.42893559 85 811 C88.8227907 811.90738957 92.36611086 812.1266104 96.29209042 812.13028526 C98.20645677 812.13572178 98.20645677 812.13572178 100.1594972 812.14126813 C101.5736116 812.14027156 102.98772594 812.13918944 104.40184021 812.13803101 C105.90585548 812.14044957 107.40987009 812.14331199 108.91388375 812.14658034 C113.0485378 812.15433192 117.18317526 812.15595268 121.31783569 812.15663147 C125.77682174 812.15847156 130.23579809 812.16607883 134.69477844 812.17311096 C142.42399919 812.18463773 150.15321775 812.19288165 157.88244438 812.19923019 C170.10630097 812.20956029 182.33013041 812.23012588 194.55397034 812.25234985 C198.73730746 812.25982974 202.9206447 812.26724348 207.10398197 812.27463722 C208.14949748 812.27648779 209.19501299 812.27833835 210.27221079 812.280245 C222.17487942 812.30117402 234.07755105 812.32000026 245.98022461 812.33789062 C247.06828976 812.33952881 248.15635492 812.34116699 249.27739174 812.34285481 C266.89536262 812.36911911 284.51333558 812.38777386 302.13131773 812.40448253 C320.22758678 812.42192164 338.32381486 812.45078768 356.42005116 812.4893719 C367.57633759 812.51273451 378.73255719 812.52676311 389.88886828 812.52869953 C397.54150767 812.53081381 405.19408071 812.54378398 412.84669029 812.56517886 C417.25750357 812.57717002 421.66818515 812.58438457 426.07901382 812.57846642 C430.12529228 812.57313484 434.17130312 812.58176822 438.21753705 812.60102279 C439.67320558 812.60556258 441.12890062 812.60517754 442.58456343 812.59907441 C462.19901751 812.52424503 478.75144342 816.98399038 493 831 C499.50701887 839.34190935 504.68440127 848.45119406 509.6875 857.75 C510.37925095 859.02179848 511.07189667 860.29311063 511.76538086 861.56396484 C512.82343881 863.50295163 513.88108873 865.44214174 514.93611145 867.38278198 C518.25896701 873.49314389 521.65341958 879.56235983 525.0625 885.625 C529.87397502 894.19740368 534.66549056 902.78056092 539.4375 911.375 C540.36937134 913.05311768 540.36937134 913.05311768 541.32006836 914.76513672 C544.49006874 920.47515681 547.65779826 926.18643158 550.82421875 931.8984375 C556.65586223 942.41333928 562.50386139 952.91726019 568.4375 963.375 C573.70980012 972.66716396 578.88163903 982.01262535 584.03048706 991.37347412 C588.47078742 999.44408685 592.95061932 1007.49019745 597.5 1015.5 C602.37778995 1024.08946545 607.17508616 1032.72124703 611.9375 1041.375 C617.51099593 1051.50232241 623.12338493 1061.60633525 628.78100586 1071.68701172 C633.04114579 1079.2800456 637.27586652 1086.88688158 641.5 1094.5 C646.31498809 1103.17702918 651.14642642 1111.84449467 656 1120.5 C664.00746117 1134.7818717 671.95114852 1149.09897864 679.89550781 1163.41601562 C687.14915673 1176.48679918 694.41932828 1189.54784146 701.73071289 1202.58642578 C706.64202103 1211.34937506 711.52032287 1220.13043751 716.39453125 1228.9140625 C720.5795047 1236.45221344 724.78294942 1243.97975179 729 1251.5 C734.49021916 1261.29068428 739.94797527 1271.09903172 745.39453125 1280.9140625 C749.57950485 1288.4522137 753.78300435 1295.97972083 758 1303.5 C766.65639484 1318.93929067 775.24247511 1334.41755913 783.82421875 1349.8984375 C789.65586283 1360.41334037 795.50395465 1370.9172066 801.4375 1381.375 C806.68389172 1390.62323398 811.83555152 1399.92175448 816.96209717 1409.23669434 C822.19448375 1418.74314809 827.47010569 1428.22411785 832.78100586 1437.68701172 C837.04114579 1445.2800456 841.27586652 1452.88688158 845.5 1460.5 C850.31498792 1469.17702886 855.1463632 1477.84453031 860 1486.5 C865.49021916 1496.29068428 870.94797527 1506.09903172 876.39453125 1515.9140625 C880.57950571 1523.45221525 884.78332571 1530.97953966 889 1538.5 C890.72969701 1541.58784772 892.45898274 1544.6759252 894.18798828 1547.76416016 C895.4435785 1550.00635804 896.69975504 1552.24822002 897.95654297 1554.48974609 C923.54605497 1600.14834743 923.54605497 1600.14834743 919.34765625 1624.8359375 C914.69994384 1641.31237721 904.19443632 1653.89399313 889.5078125 1662.46484375 C875.89282497 1668.42329598 863.80360962 1668.56845354 849.12548828 1668.50793457 C846.68989756 1668.51254718 844.25430963 1668.51890251 841.81872749 1668.52684355 C836.53700768 1668.54003622 831.25550364 1668.5408871 825.97379303 1668.53065491 C818.11954528 1668.51548056 810.26543487 1668.52328286 802.41118795 1668.53548814 C788.38088175 1668.55652031 774.35064854 1668.55473784 760.32033545 1668.54317249 C748.04202002 1668.53310129 735.76373131 1668.53048764 723.4854126 1668.53526306 C722.67024823 1668.5355686 721.85508387 1668.53587414 721.01521756 1668.53618894 C717.70601185 1668.53743434 714.39680616 1668.53870795 711.08760048 1668.540028 C680.05901602 1668.55225779 649.03047799 1668.54118 618.0019007 1668.51964041 C590.44850789 1668.50065867 562.89518904 1668.50235721 535.34179688 1668.52148438 C504.36914625 1668.54291339 473.39653663 1668.55139038 442.42387962 1668.53903532 C439.12078223 1668.53775249 435.81768482 1668.53650113 432.5145874 1668.53526306 C431.29467073 1668.5347886 431.29467073 1668.5347886 430.05010928 1668.53430455 C417.78097386 1668.52975899 405.51186812 1668.53506768 393.24273682 1668.54518127 C379.28901614 1668.5566263 365.33537972 1668.55374197 351.38166952 1668.5320583 C343.57692163 1668.52032928 335.77235628 1668.51952296 327.9676132 1668.534643 C322.13516692 1668.54469387 316.30288104 1668.53376089 310.47045302 1668.5147447 C308.11463956 1668.51028317 305.7588016 1668.51253472 303.40300393 1668.52224785 C280.87744503 1668.60798503 280.87744503 1668.60798503 270 1664 C269.10450377 1663.64302048 268.20900753 1663.28604096 267.28637505 1662.91824389 C246.90537584 1654.40840835 237.71228462 1631.89458693 227.7578125 1613.8046875 C224.5779133 1608.02717534 221.3439386 1602.28292932 218.0625 1596.5625 C217.58820557 1595.73516357 217.11391113 1594.90782715 216.62524414 1594.05541992 C215.62807423 1592.31743855 214.63042004 1590.57973496 213.63232422 1588.84228516 C210.45779154 1583.31462894 207.29031432 1577.78293826 204.125 1572.25 C203.78544281 1571.65667877 203.44588562 1571.06335754 203.09603882 1570.45205688 C197.72023632 1561.05528487 192.42244286 1551.61698586 187.15332031 1542.15991211 C183.14721668 1534.99190511 179.03608102 1527.89148194 174.875 1520.8125 C169.88155072 1512.31408667 165.07673508 1503.73460513 160.38916016 1495.06420898 C155.62680341 1486.26858851 150.66847195 1477.59206316 145.68066406 1468.92285156 C142.48757813 1463.3697393 139.30535078 1457.81041227 136.125 1452.25 C135.78505005 1451.65580261 135.4451001 1451.06160522 135.09484863 1450.44940186 C129.77164735 1441.14151758 124.51423228 1431.79813024 119.28955078 1422.43457031 C114.57642402 1413.99971241 109.78772232 1405.60940942 104.98352051 1397.22628784 C99.60023104 1387.83016282 94.28593475 1378.39705575 89.0078125 1368.94140625 C84.89762253 1361.58435389 80.73123847 1354.26142258 76.53808594 1346.95141602 C72.64777472 1340.15881934 68.81716713 1333.33392692 65 1326.5 C58.73750026 1315.29212032 52.38670969 1304.13743336 46 1293 C44.68205782 1290.7006544 43.36428358 1288.40121376 42.046875 1286.1015625 C41.70524323 1285.50526535 41.36361145 1284.9089682 41.0116272 1284.29460144 C38.59751747 1280.0790444 36.19202618 1275.85863663 33.7890625 1271.63671875 C31.51675598 1267.64515086 29.22517191 1263.66708715 26.8984375 1259.70703125 C17.94889772 1244.34609465 13.19665651 1229.1366466 16.73046875 1211.31640625 C17.65462558 1208.11391992 18.73240447 1205.08142466 20 1202 C20.350625 1201.11957031 20.70125 1200.23914062 21.0625 1199.33203125 C24.13623324 1192.44814952 28.71376226 1187.30412687 34 1182 C34.62777344 1181.34902344 35.25554687 1180.69804688 35.90234375 1180.02734375 C49.27567471 1167.16293447 67.83310162 1165.53228127 85.45361328 1165.62768555 C87.05195349 1165.62525077 88.65029216 1165.62152484 90.24862671 1165.61662292 C94.54607019 1165.60730565 98.84328225 1165.6165605 103.14070749 1165.62995505 C107.66207264 1165.64136761 112.18342802 1165.63715463 116.70480347 1165.63520813 C124.29168425 1165.63432841 131.87847513 1165.64533935 139.46533203 1165.66381836 C148.20978751 1165.68499627 156.9541116 1165.68849063 165.69858754 1165.6822564 C174.14866358 1165.67654285 182.59869384 1165.68223083 191.04876328 1165.69342995 C194.62819143 1165.69804807 198.20759133 1165.69896198 201.78702164 1165.6968441 C206.00772789 1165.694947 210.22830224 1165.7031732 214.44897842 1165.7189045 C215.98877415 1165.72311133 217.52858335 1165.72402249 219.06838226 1165.72121429 C238.66476042 1165.690922 255.62127707 1168.77045355 270.06640625 1183.04150391 C276.13013941 1189.4402428 280.40889404 1196.29276843 284.625 1204 C285.31432579 1205.23647506 286.00511276 1206.47213651 286.69726562 1207.70703125 C288.11442332 1210.23698733 289.52622659 1212.76981566 290.93457031 1215.3046875 C294.05638239 1220.90810841 297.28140069 1226.4518088 300.5 1232 C306.05899192 1241.6140878 311.57420614 1251.25258805 317.07461548 1260.90023804 C322.29854122 1270.05945478 327.59289755 1279.17562065 332.92211914 1288.27392578 C337.39473821 1295.92507849 341.76273595 1303.6316725 346.10620117 1311.35668945 C350.0052116 1318.27691644 353.98399917 1325.14708909 358 1332 C362.56860101 1339.79586884 367.07154477 1347.62367125 371.5 1355.5 C376.61342404 1364.5939244 381.82442294 1373.62665787 387.11010742 1382.62158203 C389.57059905 1386.81214473 392.02427419 1390.99893054 394.34375 1395.26953125 C402.53409017 1410.33896963 413.35127827 1420.85544158 430 1426 C446.13967379 1430.27945896 463.44364669 1428.74194153 478.18359375 1420.79296875 C492.16698898 1411.89091825 500.77741336 1399.13285461 504.60522461 1383.11303711 C508.53476941 1362.08013035 499.04597957 1344.55462201 488.625 1327 C487.38431708 1324.89127156 486.14477996 1322.78186867 484.90625 1320.671875 C484.26558594 1319.58068359 483.62492187 1318.48949219 482.96484375 1317.36523438 C479.64663463 1311.68205911 476.38458239 1305.96693466 473.125 1300.25 C472.4520712 1299.0704729 471.77913824 1297.89094817 471.10620117 1296.71142578 C469.74920407 1294.33229914 468.39273466 1291.95287255 467.03662109 1289.57324219 C463.67347949 1283.67198311 460.30621933 1277.7730765 456.9375 1271.875 C456.60606995 1271.29463989 456.27463989 1270.71427979 455.9331665 1270.11633301 C451.14392337 1261.73158738 446.33051209 1253.3610388 441.5 1245 C434.29787206 1232.53397777 427.15170324 1220.03638756 420.01611328 1207.53222656 C418.01064186 1204.01819321 416.00361469 1200.50505031 413.99609375 1196.9921875 C413.5013279 1196.12640579 413.5013279 1196.12640579 412.99656677 1195.24313354 C411.33274641 1192.33175915 409.66874706 1189.42048712 408.00463867 1186.50927734 C404.98338747 1181.22346172 401.96326195 1175.9370188 398.94869995 1170.64738464 C397.25820925 1167.68116606 395.56684065 1164.7154488 393.875 1161.75 C393.54244202 1161.1670517 393.20988403 1160.58410339 392.86724854 1159.98348999 C387.69262151 1150.91727024 382.4453503 1141.89531904 377.16113281 1132.89257812 C372.87708989 1125.56879977 368.73971161 1118.16992659 364.625 1110.75 C354.00394887 1091.68041853 344.00555404 1076.15290053 322.0625 1069.47265625 C317.18250796 1068.35432474 312.53033861 1067.87470935 307.52518559 1067.87250805 C305.58785733 1067.86799658 305.58785733 1067.86799658 303.61139113 1067.86339396 C302.18518696 1067.86508135 300.7589829 1067.8668524 299.33277893 1067.86869812 C297.81211431 1067.8669952 296.29145013 1067.86484516 294.7707867 1067.86228687 C291.46643206 1067.85769496 288.16209614 1067.85626801 284.85773849 1067.85725212 C279.48067744 1067.85884655 274.10363493 1067.85363907 268.72657776 1067.84762573 C260.91825427 1067.83951521 253.10993405 1067.83456967 245.30160713 1067.83133507 C232.95137791 1067.82583346 220.60117623 1067.80893013 208.2509613 1067.78999329 C204.0235415 1067.78363654 199.79612162 1067.77732807 195.56870174 1067.77101612 C193.98393814 1067.76864048 193.98393814 1067.76864048 192.36715912 1067.76621684 C180.34153579 1067.74828147 168.31591052 1067.7320553 156.2902832 1067.71704102 C155.1910834 1067.71566514 154.0918836 1067.71428927 152.95937472 1067.71287171 C135.16107712 1067.69095872 117.36278663 1067.68018951 99.56447793 1067.67267027 C81.27945306 1067.66458954 62.99448898 1067.64126738 44.70949882 1067.6047166 C33.43873526 1067.58273045 22.16809684 1067.57301506 10.89731293 1067.57921693 C3.16570168 1067.58239989 -4.565803 1067.57100633 -12.29738127 1067.54832252 C-16.7529187 1067.53569863 -21.20821857 1067.52943146 -25.66376495 1067.54073906 C-29.75206567 1067.55098077 -33.83990729 1067.54250889 -37.92815424 1067.5198761 C-39.39794238 1067.51492219 -40.86777251 1067.51653145 -42.33753973 1067.52580877 C-59.22687967 1067.62393458 -75.47274165 1063.80838703 -88.18432617 1051.91162109 C-95.66216026 1044.03862917 -101.09391716 1034.76413762 -106.1875 1025.25 C-107.48993799 1022.85541197 -108.79967121 1020.46483876 -110.109375 1018.07421875 C-110.43586533 1017.47641098 -110.76235565 1016.87860321 -111.09873962 1016.26268005 C-114.27217807 1010.46623162 -117.58731548 1004.75805315 -120.9375 999.0625 C-126.02013851 990.40954401 -131.03370386 981.72003045 -136 973 C-141.01295039 964.19981462 -146.0679307 955.42627265 -151.1875 946.6875 C-156.24538062 938.05264974 -161.20174129 929.36607769 -166.10620117 920.64331055 C-170.0052116 913.72308356 -173.98399917 906.85291091 -178 900 C-183.12091774 891.26165692 -188.14173994 882.47296376 -193.10546875 873.64453125 C-197.0047939 866.72393721 -200.98375906 859.85332063 -205 853 C-210.12091774 844.26165692 -215.14173994 835.47296376 -220.10546875 826.64453125 C-224.0047939 819.72393721 -227.98375906 812.85332063 -232 806 C-236.56860165 798.20413007 -241.07147891 790.37629203 -245.5 782.5 C-249.86969588 774.73010763 -254.30711014 767.00450532 -258.8125 759.3125 C-263.88328692 750.65326499 -268.90200841 741.96570306 -273.875 733.25 C-274.20794067 732.66652802 -274.54088135 732.08305603 -274.88391113 731.48190308 C-276.57781167 728.51277364 -278.27085374 725.54315583 -279.96337891 722.57324219 C-283.32652051 716.67198311 -286.69378067 710.7730765 -290.0625 704.875 C-290.39393005 704.29463989 -290.72536011 703.71427979 -291.0668335 703.11633301 C-296.4692909 693.65800527 -301.90595541 684.21971616 -307.35571289 674.78857422 C-311.92726975 666.87237026 -316.46942788 658.93969245 -321 651 C-326.16676519 641.9463263 -331.35129907 632.90320099 -336.5625 623.875 C-337.17158203 622.81893555 -337.78066406 621.76287109 -338.40820312 620.67480469 C-341.26757922 615.72006568 -344.13256002 610.76876096 -347.0131073 605.82629395 C-372.88365906 561.43429691 -372.88365906 561.43429691 -368 538.0625 C-363.36886026 522.12716918 -353.27836953 507.61444187 -344.9921875 493.41992188 C-341.78654311 487.91689901 -338.61424824 482.39473475 -335.4375 476.875 C-330.67321302 468.60883239 -325.87996394 460.36027316 -321.0625 452.125 C-315.64041301 442.85436069 -310.29675988 433.54063301 -304.97976685 424.20953369 C-299.80621213 415.13221364 -294.56857846 406.09428467 -289.2890625 397.078125 C-284.80833854 389.4142623 -280.39493248 381.71321165 -276 374 C-270.48736165 364.32518781 -264.91575433 354.68717863 -259.2890625 345.078125 C-254.80833854 337.4142623 -250.39493248 329.71321165 -246 322 C-240.48736165 312.32518781 -234.91575433 302.68717863 -229.2890625 293.078125 C-224.80833854 285.4142623 -220.39493248 277.71321165 -216 270 C-210.48736165 260.32518781 -204.91575433 250.68717863 -199.2890625 241.078125 C-194.80833854 233.4142623 -190.39493248 225.71321165 -186 218 C-180.48736165 208.32518781 -174.91575433 198.68717863 -169.2890625 189.078125 C-164.80833854 181.4142623 -160.39493248 173.71321165 -156 166 C-150.48736165 156.32518781 -144.91575433 146.68717863 -139.2890625 137.078125 C-134.80833854 129.4142623 -130.39493248 121.71321165 -126 114 C-120.48736165 104.32518781 -114.91575433 94.68717863 -109.2890625 85.078125 C-105.154304 78.00600412 -101.0745756 70.90364329 -97.01831055 63.78634644 C-94.0170533 58.52146413 -91.00832506 53.26084568 -88 48 C-87.35933594 46.87835449 -86.71867187 45.75670898 -86.05859375 44.60107422 C-84.21263298 41.37585476 -82.35767524 38.15598319 -80.5 34.9375 C-79.69175781 33.52114258 -79.69175781 33.52114258 -78.8671875 32.07617188 C-69.28113791 15.53669468 -58.06710532 2.07820198 -39.0234375 -3.3046875 C-26.56886299 -5.84497891 -11.46227218 -5.75675965 0 0 Z " fill="#296431" transform="translate(982,20)"/>
<path d="M0 0 C10.95769525 8.33601172 17.72406 18.77254704 24.1875 30.75 C25.17982923 32.56590968 26.17518564 34.38013886 27.17066956 36.19432068 C27.83678167 37.40865173 28.50201795 38.62346364 29.16636658 39.83876038 C32.0296393 45.07358571 34.96565543 50.26373997 37.9375 55.4375 C38.4116333 56.26443359 38.8857666 57.09136719 39.37426758 57.94335938 C40.37154542 59.68177908 41.36936382 61.41988879 42.36767578 63.15771484 C45.54220846 68.68537106 48.70968568 74.21706174 51.875 79.75 C52.21455719 80.34332123 52.55411438 80.93664246 52.90396118 81.54794312 C57.69420874 89.92117935 62.42927739 98.323275 67.125 106.75 C71.63770352 114.84723974 76.24138757 122.88279297 80.9375 130.875 C86.57961427 140.47718607 92.01402469 150.18220327 97.39428711 159.93310547 C101.49727206 167.34916185 105.7025647 174.69508775 110 182 C115.6656365 191.63318477 121.13046915 201.36629386 126.53735352 211.14672852 C131.72759701 220.53067258 137.02152097 229.85062391 142.36328125 239.14892578 C145.56164526 244.72030032 148.74944867 250.29772033 151.9375 255.875 C152.27933319 256.47287323 152.62116638 257.07074646 152.97335815 257.68673706 C158.03232415 266.53623287 163.06142354 275.40220064 168.06835938 284.28125 C172.66608734 292.4274085 177.31207595 300.54569039 181.96136475 308.66247559 C186.73357289 316.99681964 191.45059858 325.36031899 196.125 333.75 C200.63764737 341.84727008 205.24138839 349.88279437 209.9375 357.875 C215.57961427 367.47718607 221.01402469 377.18220327 226.39428711 386.93310547 C230.49727206 394.34916185 234.7025647 401.69508775 239 409 C244.6656365 418.63318477 250.13046915 428.36629386 255.53735352 438.14672852 C260.72917097 447.5335183 266.0244858 456.85647922 271.36767578 466.15771484 C274.54220846 471.68537106 277.70968568 477.21706174 280.875 482.75 C281.38433578 483.63998184 281.38433578 483.63998184 281.90396118 484.54794312 C286.69420874 492.92117935 291.42927739 501.323275 296.125 509.75 C300.63770352 517.84723974 305.24138757 525.88279297 309.9375 533.875 C315.57961427 543.47718607 321.01402469 553.18220327 326.39428711 562.93310547 C330.49727022 570.34915852 334.70245979 577.69515175 339 585 C344.62396361 594.55946863 350.03655201 604.22294684 355.39453125 613.93359375 C359.49747115 621.3494665 363.70265701 628.69524467 368 636 C373.6656365 645.63318477 379.13046915 655.36629386 384.53735352 665.14672852 C389.72917097 674.5335183 395.0244858 683.85647922 400.36767578 693.15771484 C403.54220846 698.68537106 406.70968568 704.21706174 409.875 709.75 C410.38433578 710.63998184 410.38433578 710.63998184 410.90396118 711.54794312 C415.69420874 719.92117935 420.42927739 728.323275 425.125 736.75 C429.63770352 744.84723974 434.24138757 752.88279297 438.9375 760.875 C444.57961427 770.47718607 450.01402469 780.18220327 455.39428711 789.93310547 C459.49727206 797.34916185 463.7025647 804.69508775 468 812 C473.65881037 821.62157843 479.13097155 831.33583119 484.51098633 841.1159668 C487.43027233 846.41466821 490.3785622 851.68388656 493.47265625 856.8828125 C503.13444165 873.13700778 509.48010869 888.58502671 504.875 907.75 C501.36387012 918.59223903 496.10986033 927.01864098 488 935 C487.4121875 935.58652344 486.824375 936.17304687 486.21875 936.77734375 C474.36923476 947.76050293 459.84420899 949.44980698 444.39707661 949.38311005 C442.70670027 949.38684985 441.01632641 949.39190096 439.32595745 949.39813888 C434.6790335 949.41147615 430.03228971 949.40616543 425.38536105 949.39780539 C420.3304595 949.39200028 415.27559261 949.40354611 410.22070044 949.41286707 C401.36054872 949.42678703 392.50044806 949.42951086 383.6402874 949.42490768 C370.46475401 949.41808025 357.2892724 949.42832728 344.1137462 949.44186524 C319.8983869 949.46610654 295.68304417 949.47140625 271.46767618 949.46955473 C268.03712409 949.4692951 264.606572 949.46905643 261.17601991 949.46883965 C260.15390991 949.46877359 260.15390991 949.46877359 259.11115123 949.46870619 C244.00635837 949.46784257 228.90156891 949.47263517 213.79677739 949.47852156 C210.34719861 949.47986253 206.89761981 949.48116242 203.44804102 949.4824672 C202.06356706 949.48299173 200.67909311 949.48351632 199.29461916 949.48404097 C198.60835639 949.48430075 197.92209362 949.48456053 197.215035 949.48482819 C195.82690739 949.48535437 194.43877978 949.48588204 193.05065217 949.4864112 C153.66357118 949.50140765 114.27649289 949.5101774 74.88940907 949.50545502 C73.79546398 949.50532622 73.79546398 949.50532622 72.679419 949.50519482 C64.54709345 949.50423543 56.41476791 949.50319723 48.28244237 949.50213593 C46.05664696 949.50184641 43.83085154 949.50155693 41.60505613 949.50126753 C40.11996935 949.50107353 38.63488256 949.50087803 37.14979578 949.50068104 C-9.80876713 949.49446558 -56.76727849 949.50932278 -103.72583008 949.54199219 C-115.55711702 949.55021554 -127.388404 949.55836557 -139.21969128 949.56609344 C-140.31246717 949.56680774 -140.31246717 949.56680774 -141.42731935 949.56753646 C-163.88418778 949.58212491 -186.34105193 949.59056827 -208.797925 949.592659 C-209.50307729 949.59272531 -210.20822958 949.59279163 -210.93475013 949.59285996 C-226.41524653 949.59425408 -241.89574262 949.59414268 -257.376239 949.59264987 C-262.91556997 949.59212777 -268.45490095 949.59171059 -273.99423193 949.5913417 C-275.37225421 949.59124848 -276.75027648 949.59114934 -278.12829875 949.59104425 C-300.07605028 949.58941989 -322.02376339 949.60223606 -343.97150496 949.62220203 C-366.69508332 949.64275236 -389.41861175 949.64487859 -412.14219525 949.62604648 C-425.24102212 949.61571277 -438.33967355 949.61920959 -451.4384846 949.64257733 C-460.18858953 949.65680401 -468.93856456 949.65285038 -477.68866072 949.63413157 C-482.6739374 949.62397714 -487.65887245 949.6216611 -492.64412787 949.64145225 C-497.18521362 949.65931735 -501.72567147 949.65390233 -506.26672624 949.63042386 C-507.89366096 949.62599751 -509.52064617 949.62982344 -511.14753165 949.64323221 C-527.70897496 949.77041521 -541.12013576 945.9608071 -553.6875 934.5625 C-554.450625 933.716875 -555.21375 932.87125 -556 932 C-556.54140625 931.46246094 -557.0828125 930.92492188 -557.640625 930.37109375 C-567.82753672 919.76341828 -571.4864421 906.21742335 -571.35253906 891.91308594 C-570.80471397 871.12101654 -556.65226621 852.70213373 -546.42431641 835.31518555 C-541.99793493 827.77365195 -537.72351983 820.15673406 -533.5 812.5 C-528.7738041 803.93411264 -523.96066791 795.43229537 -519 787 C-513.3343635 777.36681523 -507.86953085 767.63370614 -502.46264648 757.85327148 C-497.27082903 748.4664817 -491.9755142 739.14352078 -486.63232422 729.84228516 C-483.45779154 724.31462894 -480.29031432 718.78293826 -477.125 713.25 C-476.61566422 712.36001816 -476.61566422 712.36001816 -476.09603882 711.45205688 C-471.30579126 703.07882065 -466.57072261 694.676725 -461.875 686.25 C-456.80379948 677.15063723 -451.59702781 668.14033256 -446.31982422 659.15917969 C-441.2732813 650.53888053 -436.43118811 641.81232984 -431.60571289 633.06689453 C-426.95169098 624.65485078 -422.14409999 616.34426025 -417.26953125 608.05859375 C-412.89737072 600.60135815 -408.6760561 593.06856352 -404.5 585.5 C-399.77369072 576.93417349 -394.96066973 568.43229846 -390 560 C-384.3343635 550.36681523 -378.86953085 540.63370614 -373.46264648 530.85327148 C-368.2682602 521.46183727 -362.96972224 512.134728 -357.62353516 502.82910156 C-354.49071637 497.36998817 -351.37159834 491.90303436 -348.25 486.4375 C-346.88294202 484.04419682 -345.51575084 481.65096979 -344.1484375 479.2578125 C-343.80631729 478.65900269 -343.46419708 478.06019287 -343.11170959 477.4432373 C-341.05344691 473.84139103 -338.99295295 470.24083214 -336.93057251 466.64134216 C-335.24464043 463.69881899 -333.55958372 460.75579528 -331.875 457.8125 C-331.54280457 457.23212982 -331.21060913 456.65175964 -330.86834717 456.05380249 C-326.1540339 447.81343062 -321.49662254 439.54270781 -316.875 431.25 C-311.80374535 422.15066703 -306.59702847 413.14033368 -301.31982422 404.15917969 C-296.93370559 396.66699042 -292.69446268 389.1009076 -288.5 381.5 C-283.20073598 371.89704982 -277.76678962 362.3881438 -272.20800781 352.93334961 C-267.96155675 345.69409874 -263.83313637 338.39497081 -259.75 331.0625 C-255.54606978 323.51602521 -251.29380642 316.00950189 -246.88647461 308.58007812 C-243.14536462 302.26944596 -239.47510718 295.91897114 -235.8125 289.5625 C-234.85657959 287.90383911 -234.85657959 287.90383911 -233.88134766 286.21166992 C-231.9203862 282.8080747 -229.96011785 279.40408111 -228 276 C-220.12380667 262.3242105 -212.22879716 248.66038714 -204.26708984 235.03417969 C-197.46412377 223.38340815 -190.73357814 211.69096256 -184 200 C-176.12337411 186.32445686 -168.22879908 172.66039042 -160.26708984 159.03417969 C-154.10080946 148.47379718 -147.9950405 137.87873234 -141.89111328 127.28222656 C-138.13971976 120.77128743 -134.38309006 114.26336806 -130.62744141 107.75488281 C-127.48817754 102.31414664 -124.35018503 96.87268523 -121.21484375 91.4296875 C-114.60399221 79.9563088 -107.96983956 68.49739292 -101.28466797 57.06713867 C-98.18207945 51.7576311 -95.09663583 46.43878447 -92.03515625 41.10546875 C-91.53633438 40.23730026 -91.53633438 40.23730026 -91.0274353 39.35159302 C-89.42723566 36.56626608 -87.82951094 33.77958225 -86.23632812 30.99023438 C-75.91238629 13.00622496 -66.47652441 -0.79317788 -45.82421875 -7.2734375 C-29.93600474 -11.36086185 -13.88175976 -8.72839415 0 0 Z " fill="#2E6A30" transform="translate(583,739)"/>
</svg>
