<?xml version="1.0" encoding="UTF-8"?>
<svg xmlns="http://www.w3.org/2000/svg" viewBox="0 0 500 500">
  <defs>
    <style>
      .cls-1 {
        stroke: #fff;
      }

      .cls-1, .cls-2, .cls-3, .cls-4, .cls-5, .cls-6 {
        stroke-linecap: round;
        stroke-linejoin: round;
      }

      .cls-1, .cls-5 {
        fill: none;
      }

      .cls-2 {
        fill: #8a8a8a;
      }

      .cls-2, .cls-3, .cls-4, .cls-5, .cls-6 {
        stroke: #263238;
      }

      .cls-3 {
        fill: #92e3a9;
      }

      .cls-4 {
        fill: #fff;
      }

      .cls-6, .cls-7 {
        fill: #263238;
      }
    </style>
  </defs>
  <g id="Clouds">
    <g>
      <path class="cls-5" d="m224.32,58.28c-6.05,3.54-8.34,10.39-9.43,13.68-1.51,4.54-6.81-3.03-17.41.76-10.6,3.79-12.11,12.11-14.39,14.39s-17.41,8.33-17.41,8.33h151.95"/>
      <path class="cls-5" d="m325.19,95.43h18.41s3.03-16.66-3.79-24.99c-6.81-8.33-21.96,3.79-26.5-8.33,0,0-13.63-19.69-30.29-21.2-16.66-1.51-23.47,11.36-28.77,18.17-5.3,6.81-8.33-3.03-21.2-3.03"/>
      <path class="cls-5" d="m252.47,81.9c-3.09,2.87-3.51,6.71-3.51,6.71"/>
      <path class="cls-5" d="m310.29,68.93s-10.6-10.6-22.72-9.84c-12.11.76-7.57,15.14-12.87,19.69s-11.36-1.51-18.17.76"/>
    </g>
    <g>
      <path class="cls-5" d="m274.58,145.42c-2.76,1.61-3.8,4.73-4.3,6.23-.69,2.07-3.1-1.38-7.93.35s-5.52,5.52-6.55,6.55c-1.03,1.03-7.93,3.79-7.93,3.79h69.23"/>
      <path class="cls-5" d="m320.54,162.35h8.39s1.38-7.59-1.72-11.38-10,1.72-12.07-3.79c0,0-6.21-8.97-13.8-9.66s-10.69,5.17-13.11,8.28c-2.41,3.1-3.79-1.38-9.66-1.38"/>
      <path class="cls-5" d="m287.41,156.18c-1.41,1.31-1.6,3.06-1.6,3.06"/>
      <path class="cls-5" d="m313.75,150.27s-4.83-4.83-10.35-4.48c-5.52.35-3.45,6.9-5.86,8.97-2.41,2.07-5.17-.69-8.28.35"/>
    </g>
  </g>
  <g id="Text">
    <g>
      <path class="cls-6" d="m103.59,362.9v-41.71h-50.72v-24.73l44.22-103.32h33.74v105h17.4v23.05h-17.4v41.71h-27.24Zm-26.41-64.76h26.41v-73.77l-26.41,73.77Z"/>
      <path class="cls-6" d="m207.75,365.42c-9.92,0-18.13-2.1-24.63-6.29-6.5-4.19-11.39-9.99-14.67-17.4-3.28-7.4-4.93-15.93-4.93-25.57v-75.24c0-9.92,1.57-18.62,4.72-26.09,3.14-7.47,7.96-13.31,14.46-17.5,6.5-4.19,14.84-6.29,25.04-6.29s18.55,2.1,25.04,6.29c6.5,4.19,11.32,10.03,14.46,17.5,3.14,7.48,4.72,16.17,4.72,26.09v75.24c0,9.64-1.64,18.16-4.93,25.57-3.28,7.41-8.17,13.2-14.67,17.4-6.5,4.19-14.71,6.29-24.63,6.29Zm0-24.94c4.33,0,7.54-1.33,9.64-3.98,2.1-2.65,3.49-5.87,4.19-9.64.7-3.77,1.05-7.47,1.05-11.11v-74.4c0-3.91-.31-7.79-.94-11.63-.63-3.84-1.99-7.09-4.09-9.75-2.1-2.65-5.38-3.98-9.85-3.98s-7.75,1.33-9.85,3.98c-2.1,2.66-3.46,5.9-4.09,9.75-.63,3.84-.94,7.72-.94,11.63v74.4c0,3.64.38,7.34,1.15,11.11.77,3.77,2.2,6.99,4.3,9.64,2.1,2.66,5.24,3.98,9.43,3.98Z"/>
      <path class="cls-6" d="m321.13,362.9v-41.71h-50.72v-24.73l44.22-103.32h33.74v105h17.4v23.05h-17.4v41.71h-27.24Zm-26.41-64.76h26.41v-73.77l-26.41,73.77Z"/>
    </g>
    <g>
      <path class="cls-4" d="m116.23,362.9v-41.71h-50.72v-24.73l44.22-103.32h33.74v105h17.4v23.05h-17.4v41.71h-27.24Zm-26.41-64.76h26.41v-73.77l-26.41,73.77Z"/>
      <path class="cls-4" d="m220.39,365.42c-9.92,0-18.13-2.1-24.63-6.29-6.5-4.19-11.39-9.99-14.67-17.4-3.28-7.4-4.93-15.93-4.93-25.57v-75.24c0-9.92,1.57-18.62,4.72-26.09,3.14-7.47,7.96-13.31,14.46-17.5,6.5-4.19,14.84-6.29,25.04-6.29s18.55,2.1,25.04,6.29c6.5,4.19,11.32,10.03,14.46,17.5,3.14,7.48,4.72,16.17,4.72,26.09v75.24c0,9.64-1.64,18.16-4.93,25.57-3.28,7.41-8.17,13.2-14.67,17.4-6.5,4.19-14.71,6.29-24.63,6.29Zm0-24.94c4.33,0,7.54-1.33,9.64-3.98,2.1-2.65,3.49-5.87,4.19-9.64.7-3.77,1.05-7.47,1.05-11.11v-74.4c0-3.91-.31-7.79-.94-11.63-.63-3.84-1.99-7.09-4.09-9.75-2.1-2.65-5.38-3.98-9.85-3.98s-7.75,1.33-9.85,3.98c-2.1,2.66-3.46,5.9-4.09,9.75-.63,3.84-.94,7.72-.94,11.63v74.4c0,3.64.38,7.34,1.15,11.11.77,3.77,2.2,6.99,4.3,9.64,2.1,2.66,5.24,3.98,9.43,3.98Z"/>
      <path class="cls-4" d="m333.77,362.9v-41.71h-50.72v-24.73l44.22-103.32h33.74v105h17.4v23.05h-17.4v41.71h-27.24Zm-26.41-64.76h26.41v-73.77l-26.41,73.77Z"/>
    </g>
    <g>
      <path class="cls-7" d="m108.52,184.94c-2.36,0-4.23-.44-5.63-1.31-1.4-.88-2.4-2.14-3-3.78-.6-1.64-.9-3.59-.9-5.83v-12.44c0-2.24.3-4.17.9-5.77.6-1.6,1.6-2.83,3-3.68,1.4-.85,3.27-1.27,5.63-1.27s4.31.42,5.69,1.27c1.38.85,2.38,2.07,3,3.68.62,1.6.92,3.53.92,5.77v12.49c0,2.22-.31,4.14-.92,5.77-.62,1.63-1.62,2.89-3,3.78-1.38.89-3.28,1.33-5.69,1.33Zm0-4.48c1.01,0,1.76-.22,2.24-.66.48-.44.8-1.04.96-1.81.16-.77.25-1.6.25-2.51v-15.32c0-.93-.08-1.77-.25-2.51-.16-.74-.49-1.32-.96-1.75-.48-.42-1.23-.64-2.24-.64-.96,0-1.68.21-2.18.64-.49.42-.82,1.01-.99,1.75s-.25,1.57-.25,2.51v15.32c0,.9.07,1.74.23,2.51.15.77.47,1.37.96,1.81.49.44,1.23.66,2.22.66Z"/>
      <path class="cls-7" d="m131.64,184.94c-2.36,0-4.23-.44-5.63-1.31-1.4-.88-2.4-2.14-3-3.78-.6-1.64-.9-3.59-.9-5.83v-12.44c0-2.24.3-4.17.9-5.77.6-1.6,1.6-2.83,3-3.68,1.4-.85,3.27-1.27,5.63-1.27s4.31.42,5.69,1.27c1.38.85,2.38,2.07,3,3.68.62,1.6.92,3.53.92,5.77v12.49c0,2.22-.31,4.14-.92,5.77-.62,1.63-1.62,2.89-3,3.78-1.38.89-3.28,1.33-5.69,1.33Zm0-4.48c1.01,0,1.76-.22,2.24-.66.48-.44.8-1.04.96-1.81.16-.77.25-1.6.25-2.51v-15.32c0-.93-.08-1.77-.25-2.51-.16-.74-.49-1.32-.96-1.75-.48-.42-1.23-.64-2.24-.64-.96,0-1.68.21-2.18.64-.49.42-.82,1.01-.99,1.75s-.25,1.57-.25,2.51v15.32c0,.9.07,1.74.23,2.51.15.77.47,1.37.97,1.81.49.44,1.23.66,2.22.66Z"/>
      <path class="cls-7" d="m145.73,184.49v-33.27h9.77c2,0,3.62.37,4.87,1.11,1.25.74,2.16,1.81,2.75,3.22.59,1.41.88,3.12.88,5.11,0,2.16-.37,3.91-1.11,5.24-.74,1.33-1.77,2.29-3.1,2.9-1.33.6-2.9.9-4.7.9h-3.29v14.79h-6.08Zm6.08-19.06h2.3c1.09,0,1.95-.16,2.57-.47.62-.31,1.04-.82,1.27-1.52.23-.7.35-1.64.35-2.81s-.09-2.18-.27-2.94c-.18-.75-.56-1.31-1.15-1.66-.59-.36-1.51-.53-2.77-.53h-2.3v9.94Z"/>
      <path class="cls-7" d="m175.59,184.94c-2,0-3.67-.39-5.01-1.17-1.34-.78-2.35-1.92-3.04-3.43-.68-1.51-1.07-3.35-1.15-5.54l5.22-1.03c.05,1.29.21,2.42.47,3.41.26.99.66,1.75,1.19,2.28.53.53,1.24.8,2.11.8.99,0,1.68-.29,2.09-.88.41-.59.62-1.33.62-2.24,0-1.45-.33-2.64-.99-3.57-.66-.93-1.53-1.86-2.63-2.79l-4.19-3.7c-1.18-1.01-2.12-2.14-2.81-3.39-.7-1.25-1.05-2.79-1.05-4.62,0-2.63.77-4.65,2.3-6.08,1.53-1.42,3.63-2.14,6.28-2.14,1.56,0,2.86.24,3.9.72,1.04.48,1.87,1.14,2.48,1.99.62.85,1.07,1.81,1.38,2.9.3,1.08.49,2.22.58,3.43l-5.17.9c-.06-1.04-.17-1.97-.35-2.79-.18-.82-.49-1.46-.94-1.93-.45-.46-1.12-.7-1.99-.7s-1.6.29-2.07.88c-.48.59-.72,1.32-.72,2.2,0,1.12.23,2.05.7,2.77.47.73,1.14,1.47,2.01,2.24l4.15,3.66c1.37,1.15,2.54,2.5,3.51,4.05.97,1.55,1.46,3.42,1.46,5.61,0,1.59-.35,3-1.05,4.23s-1.67,2.2-2.92,2.9c-1.25.7-2.7,1.05-4.37,1.05Z"/>
      <path class="cls-7" d="m186.63,184.49v-5.42h5.42v5.42h-5.42Zm1.72-7.8l-1.68-25.42h5.59l-1.97,25.42h-1.93Z"/>
    </g>
  </g>
  <g id="Suitcase">
    <g>
      <path class="cls-6" d="m336.19,383.5v7.15h3.73v-4.19c0-1.84,1.49-3.33,3.33-3.33h12.22c1.84,0,3.33,1.49,3.33,3.33v4.19h3.73v-7.15c0-1.84-1.49-3.33-3.33-3.33h-19.67c-1.84,0-3.33,1.49-3.33,3.33Z"/>
      <path class="cls-6" d="m304.92,388.7h70.54c2.6,0,4.7,2.11,4.7,4.7v56.7c0,1.67-1.36,3.03-3.03,3.03h-73.89c-1.67,0-3.03-1.36-3.03-3.03v-56.7c0-2.6,2.11-4.7,4.7-4.7Z"/>
      <path class="cls-2" d="m314.69,388.7h70.54c2.6,0,4.7,2.11,4.7,4.7v56.7c0,1.67-1.36,3.03-3.03,3.03h-73.89c-1.67,0-3.03-1.36-3.03-3.03v-56.7c0-2.6,2.11-4.7,4.7-4.7Z"/>
    </g>
  </g>
  <g id="Character">
    <g>
      <g>
        <path class="cls-6" d="m410,262.16s-20.11,60.4-21.84,71.33c-1.74,10.93-.62,24.51.43,31.38,1.04,6.87,11.75,66.18,11.75,66.18,0,0-2.65-.89-2.84,1.02-.19,1.92.47,10.03.47,10.03,0,0-2.78,3.89-10.09,8.12-7.31,4.23-10.87,5.51-8.68,6.9,2.18,1.38,11.52,1.88,15.33,1.31,3.81-.57,14.06-1.76,15.73-2.04,1.67-.28,6.71.8,8.32-2.11,1.61-2.91.44-11.72.85-14.84.4-3.12-1.86-8.08-1.88-8.8s-2.02-67.75-2.02-67.75l1.27-16.65s-.37,15.86,1.45,17.62c1.82,1.77,20.84,67.95,20.84,67.95l-1.84,2.91,2.3,6.4-1.82,4.11s-8.65,8.09-12.19,10.09c-3.54,2-7.11,2.56-5.16,4.18,1.95,1.63,21.05.7,21.05.7l19.98-4.05s3.03-3.42,2.48-6.27c-.54-2.86-3.17-13.07-3.17-13.07,0,0,.64-13.4-.09-13.86-.73-.46-4.43-5.39-4.71-7.3-.28-1.91-2.36-39.34-4.56-45.63-2.2-6.29-4.93-16.14-4.93-16.14,0,0,1.55-1.57,1.65-3.25.1-1.69-.39-4.76-.39-4.76,0,0,20.87-54.3,21.82-57.41.96-3.11,5.26-19.83,5.26-26.53s-.48-11.71-.48-11.71c0,0-16.25,7.41-32.74,8.12s-31.07-.24-31.07-.24l-.48,4.06Z"/>
        <g>
          <path class="cls-1" d="m459.95,264.31s0,16.25,8.12,19.36"/>
          <path class="cls-1" d="m471.65,259.53s.48,10.99-1.67,20.79"/>
          <path class="cls-1" d="m456.07,309.34c-2.23,4.74-3.93,8.42-4.01,8.74"/>
          <path class="cls-1" d="m466.88,286.53s-5.21,10.94-9.45,19.94"/>
          <polyline class="cls-1" points="418.86 331.29 427.68 293.46 418.37 285.34"/>
          <line class="cls-1" x1="416.95" y1="339.51" x2="417.86" y2="335.58"/>
        </g>
      </g>
      <g>
        <path class="cls-3" d="m371.07,175.6l-23.93,10.42s14.28-29.72,14.86-31.46-7.91-16.4-7.72-16.98c.19-.58,7.53-9.46,7.72-11.39s4.25-8.68,1.16-9.07c-3.09-.39-19.49,14.86-19.88,18.72-.39,3.86,7.33,16.98,8.11,18.14.77,1.16-39.76,44.58-40.53,51.53-.77,6.95,2.51,11.39,8.3,12.16,5.79.77,51.34-14.86,58.28-16.79,6.95-1.93,9.26,1.16,9.26,1.16,0,0,21.81,26.44,23.35,29.72,1.54,3.28.77,15.44-.96,19.11s-3.67,10.04-2.7,11c.96.96,1.67,2.15,4.57,2.93,2.89.77,23.03,3.25,34.42,1.51,11.39-1.74,24.9-7.72,27.98-10.04,3.09-2.32,3.47-5.02,3.47-8.49s-2.32-6.56-3.86-10.04c-1.54-3.47-11.77-35.32-16.02-45.55-4.25-10.23-2.89-17.95-18.91-27.02-16.02-9.07-34.81-7.17-34.81-7.17l-32.16,17.59Z"/>
        <g>
          <g>
            <line class="cls-5" x1="346.18" y1="200.57" x2="345.98" y2="203.58"/>
            <polyline class="cls-5" points="340.97 205.32 347.14 186.02 346.33 198.3"/>
            <path class="cls-5" d="m340.39,168.84s.96,7.33,10.42,7.72"/>
            <path class="cls-4" d="m384.58,200.3s-6.95-4.63-14.09-6.95"/>
            <path class="cls-5" d="m368.39,195.84c-.77-.13-1.55-.25-2.33-.36"/>
            <path class="cls-5" d="m382.07,198.95s-4.92-1.44-10.97-2.62"/>
          </g>
          <path class="cls-5" d="m417.45,238.37c.68.56,1.16.92,1.29.92"/>
          <path class="cls-5" d="m410.06,231.76s3.4,3.16,5.96,5.39"/>
          <line class="cls-5" x1="451.74" y1="265.14" x2="468.92" y2="254.34"/>
          <path class="cls-5" d="m461.52,223.01c-1.94,7.85-5.69,21.21-10.17,27.66"/>
          <path class="cls-5" d="m462.93,216.9s-.24,1.18-.7,3.13"/>
          <path class="cls-5" d="m462.93,227.12s-3.67,16.02-6.56,20.46"/>
        </g>
      </g>
      <g>
        <path class="cls-4" d="m357.2,164.96c2.53-5.34,4.59-9.76,4.81-10.4.58-1.74-7.91-16.4-7.72-16.98.19-.58,7.53-9.46,7.72-11.39s4.25-8.68,1.16-9.07c-3.09-.39-19.49,14.86-19.88,18.72-.39,3.86,7.33,16.98,8.11,18.14.16.24-1.52,2.38-4.28,5.66,1.07,2.62,3.7,5.94,10.09,5.32Z"/>
        <path class="cls-5" d="m353.83,127.24s-4.84,9.37-4.66,10.08"/>
        <path class="cls-5" d="m350.24,127.35s-5.52,7.83-5.16,9.08"/>
      </g>
      <g>
        <polygon class="cls-2" points="391.72 197.4 399.44 213.04 403.11 213.23 406.2 195.67 403.69 191.61 401.95 202.62 397.32 202.42 391.91 194.32 391.72 197.4"/>
        <polygon class="cls-2" points="399.44 213.04 393.04 259.63 400.44 275.19 408.37 259.02 403.11 213.23 399.44 213.04"/>
        <g>
          <polygon class="cls-7" points="398.29 210.71 404.21 206.94 406.05 196.52 402.56 198.73 401.95 202.62 397.32 202.42 397.15 202.18 394.81 203.67 398.29 210.71"/>
          <polygon class="cls-7" points="403.11 213.23 403.12 213.18 403.04 213.23 403.11 213.23"/>
        </g>
        <g>
          <polygon class="cls-7" points="404.69 226.97 396.84 231.97 395.45 242.12 405.68 235.6 404.69 226.97"/>
          <polygon class="cls-7" points="404.09 221.82 403.11 213.23 403.04 213.23 399.07 215.76 397.67 225.9 404.09 221.82"/>
          <polygon class="cls-7" points="406.27 240.76 394.62 248.18 393.22 258.33 407.26 249.39 406.27 240.76"/>
          <polygon class="cls-7" points="405.18 265.51 408.37 259.02 407.85 254.55 394.63 262.97 398.01 270.08 405.18 265.51"/>
        </g>
      </g>
      <path class="cls-3" d="m386.32,179.46s-1.54,9.46-1.35,13.7,2.32,11.77,2.32,11.77l9.46-10.81,15.83,9.84s-.58-20.07-.58-20.65-3.67-22.19-4.82-24.32-4.25-3.28-5.98-2.89c-1.74.39-14.86,23.35-14.86,23.35Z"/>
      <g>
        <g>
          <path class="cls-4" d="m359.66,126.74s-.5,14.14-.17,19.79c.33,5.65-.5,10.15,1,14.8,1.5,4.66,3.16,13.64,4.66,16.63s4.66,5.82,9.31,5.82,9.81-3.83,12.31-6.32c2.49-2.49,6.82-5.99,9.15-10.48,2.33-4.49.33-15.8.67-18.96.33-3.16,1-8.65,1-8.65,0,0,3.33-8.15.67-11.98-2.66-3.83-14.47-8.15-23.45-7.32-8.98.83-15.14,6.65-15.14,6.65Z"/>
          <path class="cls-5" d="m367.47,142.71l1.33,4.99s-3.99,11.64-2.99,12.31c1,.67,9.15-.17,9.15-.17"/>
          <path class="cls-6" d="m373.96,137.55s-.17,1.83.5,2.16c.67.33,7.15,2.83,8.15,2.49,1-.33-.33-1.66-1.16-2-.83-.33-7.82-4.16-7.48-2.66Z"/>
          <path class="cls-6" d="m367.47,140.21s-5.32,2.99-6.32,3.16c-1,.17.67-2,.67-2,0,0,3.99-4.49,4.99-3.83,1,.67.67,2.66.67,2.66Z"/>
          <path class="cls-5" d="m375.96,146.86s2.83,2.99,6.65.67"/>
          <path class="cls-5" d="m362.15,148.19s2.66,1.66,5.32-1"/>
        </g>
        <path class="cls-6" d="m396.58,148.03c.3-2.87.87-7.63.98-8.5l-3.31-1.81s1,12.31-.33,19.13c-1.33,6.82-3.66,8.98-6.32,9.98-2.66,1-3.99-.33-3.99-.33,0,0-6.32-5.99-11.98-6.15-4.94-.15-8.73,5.28-9.62,6.67,1.05,4.28,2.13,8.96,3.13,10.96,1.5,2.99,4.66,5.82,9.31,5.82s9.81-3.83,12.31-6.32c2.49-2.49,6.82-5.99,9.15-10.48,2.33-4.49.33-15.8.67-18.96Z"/>
        <path class="cls-4" d="m379.61,171.48s-3.49-4.99-6.82-5.82c-3.33-.83-6.82,5.65-5.65,6.82,1.16,1.16,2.83-3.16,5.99-1.83,3.16,1.33,4.99,3.49,6.49.83Z"/>
        <path class="cls-6" d="m359.16,117.92s-4.99-1.5-8.15.17c-3.16,1.66-4.66,5.32-4.66,5.32l6.49.5,2.99,1.5s-1.33,0-2,1.83c-.67,1.83-1.16,3.99-1.16,3.99,0,0,2.33-1.33,5.99-1.83,3.66-.5,10.81-2.66,10.81-2.66l.83,5.49s4.16-2.66,7.48-3.66c3.33-1,5.32-3.16,5.32-3.16,0,0,8.65,3.33,8.48,4.82-.17,1.5-3.16,5.16-2.16,6.32,1,1.16,3.66,3.66,3.66,3.66l9.98,5.65s3.66-5.65,5.49-14.64c1.83-8.98-6.49-18.63-13.47-21.29s-12.14-1.66-16.47-1.5-10.31-1.16-10.31-1.16l3.99,4.16s-3.83,1.5-5.49,1.83c-1.66.33-4.49,1.16-5.16.83-.67-.33-2.99-1.83-2.99-1.83,0,0-1.16,4.99.5,5.65Z"/>
        <path class="cls-4" d="m399.24,155.01s2.49-1.33,3.83-3.33c1.33-2,5.16-9.65.67-11.81-3.4-1.64-5.66,1.3-6.55,2.83-.2,1.73-.44,3.8-.6,5.32-.33,3.16,1.66,14.47-.67,18.96-2.33,4.49-6.65,7.98-9.15,10.48-.96.96-2.31,2.11-3.87,3.17l4.2,1.16s1.33,4.16,4.99,8.82,6.82,7.65,6.82,7.65c0,0,1-5.99,3.66-19.29s.67-20.96.67-20.96l-3.99-2.99Z"/>
        <path class="cls-6" d="m387.1,181.79l5.82,1.66-2.83,4.16s-2.33-3.83-2.99-5.82Z"/>
      </g>
      <g>
        <path class="cls-3" d="m422.21,177.33l4.82,120.62,10.81.77s9.26-38.98,11.97-52.3c2.7-13.32,3.67-21.81,3.47-32.42-.19-10.61-2.7-32.62-2.7-32.62,0,0-5.6-9.46-10.42-12.74"/>
        <path class="cls-5" d="m444.16,199.89c1-3.15,1.6-5.19,1.6-5.19"/>
        <path class="cls-5" d="m425.11,247.2s4.63-10.81,10.04-22.77c2.94-6.52,5.83-14.75,7.85-20.9"/>
        <path class="cls-5" d="m437.95,230.86c-.3.83-.6,1.53-.87,2.06"/>
        <path class="cls-5" d="m443.64,208.79s-2.38,11.34-4.62,18.81"/>
        <line class="cls-5" x1="427.04" y1="287.34" x2="439.97" y2="287.92"/>
      </g>
      <g>
        <path class="cls-4" d="m427.04,297.95s-1.51,18.62-1.51,20.23,1.29,13.36,1.61,14.32c.32.97,8.53,7.08,9.33,7.08s5.31.48,6.12-.8c.8-1.29,1.13-2.09,0-2.41s-4.18-.16-4.18-.16l-1.77-.8s6.6-.64,7.08-.8c.48-.16,2.9-1.77,3.38-2.9.48-1.13-.32-2.41-.32-2.41,0,0,2.41-2.25,2.58-3.06.16-.8.32-3.06-.8-2.74s-2.74,2.09-2.74,2.09h-4.02s4.18-2.74,4.67-3.54c.48-.8,1.13-4.18.97-5.15-.16-.97-2.25.16-2.74,1.13s-1.29,3.54-1.29,3.54l-4.83.64-1.61-2.09s3.22-9.98,3.22-12.07-2.33-9.32-2.33-9.32l-10.81-.77Z"/>
        <path class="cls-5" d="m432.93,322.37s3.54,3.06,4.51,3.38c.97.32,4.35-.16,4.35-.16"/>
        <path class="cls-5" d="m430.84,325.91s5.47,4.83,6.92,4.83,9.01-1.45,9.01-1.45"/>
        <path class="cls-5" d="m429.71,330.09s3.22,3.86,4.18,4.18,2.74,1.13,2.74,1.13"/>
      </g>
    </g>
  </g>
</svg>