<?xml version="1.0" encoding="UTF-8"?>
<svg version="1.1" xmlns="http://www.w3.org/2000/svg" width="3904" height="810">
<path d="M0 0 C1.14736059 -0.00581376 2.29472118 -0.01162753 3.47685027 -0.01761746 C7.31395529 -0.03219239 11.15041816 -0.01834299 14.98751831 -0.00457001 C17.76930002 -0.00696311 20.55105647 -0.01536961 23.33282661 -0.02347898 C29.37704313 -0.03789934 35.42111663 -0.03750383 41.46533966 -0.02729034 C50.45337004 -0.01214379 59.44128006 -0.01990396 68.42930967 -0.03212357 C84.48302528 -0.05317718 100.53667719 -0.05136471 116.59039885 -0.03980792 C130.63930308 -0.02974407 144.68818397 -0.02711965 158.73709106 -0.0318985 C159.66913629 -0.03220404 160.60118151 -0.03250958 161.56147052 -0.03282438 C165.34498491 -0.03406974 169.12849929 -0.03534334 172.91201366 -0.03666343 C208.40131152 -0.04889831 243.89056883 -0.03780737 279.37986043 -0.01627585 C310.90714182 0.00270645 342.43435858 0.00100794 373.9616394 -0.01811981 C409.38619669 -0.03954024 444.81071813 -0.04803061 480.23528099 -0.03567076 C484.01188532 -0.0343879 487.78848965 -0.03313653 491.56509399 -0.0318985 C492.49498426 -0.03158219 493.42487453 -0.03126588 494.38294329 -0.03093999 C508.42271462 -0.02639088 522.46246004 -0.03170974 536.50222778 -0.04181671 C552.46673341 -0.053252 568.43116539 -0.05039816 584.39566183 -0.02869374 C593.32947888 -0.01694835 602.26313643 -0.01618213 611.19694934 -0.03127843 C617.1656436 -0.04025165 623.13421006 -0.03465915 629.10288539 -0.01725936 C632.50286972 -0.00775099 635.9022775 -0.00667919 639.30229211 -0.01888329 C642.96922758 -0.03103707 646.63529492 -0.01858041 650.30218506 0 C651.35147241 -0.00936466 652.40075977 -0.01872933 653.48184371 -0.02837777 C664.77177167 0.08605069 673.96442876 3.68811843 682.15109253 11.50336456 C691.14696851 20.92676733 693.76328304 31.09327955 693.66867065 43.86859894 C693.67918457 45.64403831 693.67918457 45.64403831 693.68991089 47.45534515 C693.70739871 51.33617939 693.69590001 55.21627396 693.68234253 59.09711456 C693.6832356 61.81273734 693.68891959 64.52834732 693.69393921 67.24396515 C693.70118944 72.92279705 693.69169742 78.60141996 693.6725769 84.28022003 C693.65081298 90.81907766 693.65786624 97.35743617 693.67988253 103.89628172 C693.69811194 109.53913463 693.70055829 115.18183844 693.69012785 120.82471132 C693.68393394 124.18242678 693.68454377 127.53972262 693.6962738 130.89745331 C693.70649337 134.64468314 693.69086084 138.39097012 693.66867065 142.13813019 C693.67676758 143.2314415 693.6848645 144.32475281 693.69320679 145.45119476 C693.56812069 156.91997011 690.10663983 166.16973185 682.15109253 174.50336456 C672.90721989 183.32785546 662.85838411 186.11879051 650.30218506 186.00672913 C649.15482447 186.01254289 648.00746388 186.01835665 646.82533479 186.02434659 C642.98822977 186.03892152 639.1517669 186.02507211 635.31466675 186.01129913 C632.53288503 186.01369223 629.75112859 186.02209873 626.96935844 186.03020811 C620.92514193 186.04462847 614.88106843 186.04423296 608.8368454 186.03401947 C599.84881501 186.01887292 590.860905 186.02663308 581.87287539 186.0388527 C565.81915978 186.05990631 549.76550787 186.05809383 533.71178621 186.04653705 C519.66288198 186.0364732 505.61400109 186.03384878 491.56509399 186.03862762 C490.63304877 186.03893316 489.70100355 186.03923871 488.74071454 186.0395535 C484.95720014 186.04079887 481.17368577 186.04207247 477.3901714 186.04339256 C441.90087354 186.05562744 406.41161623 186.04453649 370.92232463 186.02300497 C339.39504324 186.00402267 307.86782648 186.00572119 276.34054565 186.02484894 C240.91598837 186.04626936 205.49146693 186.05475973 170.06690407 186.04239988 C166.29029974 186.04111702 162.51369541 186.03986566 158.73709106 186.03862762 C157.8072008 186.03831132 156.87731053 186.03799501 155.91924177 186.03766911 C141.87947044 186.03312 127.83972502 186.03843886 113.79995728 186.04854584 C97.83545165 186.05998112 81.87101967 186.05712729 65.90652323 186.03542286 C56.97270618 186.02367748 48.03904863 186.02291126 39.10523572 186.03800756 C33.13654146 186.04698078 27.167975 186.04138828 21.19929967 186.02398848 C17.79931534 186.01448012 14.39990756 186.01340832 10.99989295 186.02561241 C7.33295748 186.0377662 3.66689014 186.02530954 0 186.00672913 C-1.57393103 186.02077612 -1.57393103 186.02077612 -3.17965865 186.0351069 C-14.46958661 185.92067844 -23.6622437 182.3186107 -31.84890747 174.50336456 C-40.84478345 165.0799618 -43.46109798 154.91344958 -43.3664856 142.13813019 C-43.37349487 140.95450394 -43.38050415 139.77087769 -43.38772583 138.55138397 C-43.40521365 134.67054973 -43.39371495 130.79045517 -43.38015747 126.90961456 C-43.38105054 124.19399179 -43.38673453 121.47838181 -43.39175415 118.76276398 C-43.39900439 113.08393208 -43.38951236 107.40530916 -43.37039185 101.72650909 C-43.34862793 95.18765147 -43.35568118 88.64929296 -43.37769747 82.11044741 C-43.39592688 76.4675945 -43.39837323 70.82489068 -43.38794279 65.1820178 C-43.38174888 61.82430234 -43.38235872 58.46700651 -43.39408875 55.10927582 C-43.40430832 51.36204598 -43.38867578 47.61575901 -43.3664856 43.86859894 C-43.37458252 42.77528763 -43.38267944 41.68197632 -43.39102173 40.55553436 C-43.26593564 29.08675901 -39.80445477 19.83699728 -31.84890747 11.50336456 C-22.60503483 2.67887367 -12.55619905 -0.11206138 0 0 Z " fill="#105245" transform="translate(3158.848907470703,86.49663543701172)"/>
<path d="M0 0 C8.29902864 4.89884409 13.03406709 13.421496 17.63671875 21.5625 C18.87239487 23.71298884 20.10944817 25.86268676 21.34765625 28.01171875 C21.83650047 28.86269638 21.83650047 28.86269638 22.33522034 29.73086548 C26.4108477 36.81819129 30.58540486 43.84669793 34.76171875 50.875 C35.16317108 51.55136505 35.56462341 52.2277301 35.97824097 52.92459106 C42.00104756 63.0690023 48.10743311 73.15990476 54.25488281 83.22912598 C60.03572273 92.70634248 65.62604802 102.28235577 71.14648438 111.91308594 C75.2266695 119.02630985 79.38273756 126.08583753 83.62158203 133.10546875 C86.70970762 138.22160199 89.7751982 143.35037784 92.8203125 148.4921875 C93.20845123 149.14751465 93.59658997 149.8028418 93.99649048 150.47802734 C94.80082786 151.83620677 95.60513857 153.19440201 96.40942383 154.5526123 C102.93838736 165.57730038 109.52132082 176.56488912 116.19921875 187.5 C122.32468975 197.53206659 128.27447876 207.65522449 134.11132812 217.8581543 C138.51789126 225.55240807 143.03466709 233.17173088 147.68286133 240.72265625 C152.3232583 248.33834236 155.89492498 254.95976808 154.44921875 264.125 C151.71525364 272.16332477 147.83207025 276.94443588 140.22593689 280.72865295 C136.42026384 282.31043447 133.0314038 282.5117713 128.89672852 282.52905273 C127.81719406 282.53934761 127.81719406 282.53934761 126.71585083 282.54985046 C124.35723658 282.56802255 121.99929364 282.56429497 119.640625 282.55859375 C117.98827399 282.56316019 116.33592488 282.56846713 114.68357849 282.57447815 C111.22801984 282.58339041 107.77269254 282.58100774 104.31713867 282.57104492 C99.90443781 282.55955775 95.49253751 282.579772 91.07994175 282.60896206 C87.6696827 282.62737083 84.25961385 282.62702234 80.84931755 282.62132454 C79.22313247 282.62117189 77.59693403 282.62716895 75.97079659 282.63961601 C66.00912248 282.7051321 58.64879284 282.58177779 50.71484375 275.78125 C48.24135287 272.88129517 46.16962116 269.87494026 44.19921875 266.625 C43.78502686 265.95267334 43.37083496 265.28034668 42.9440918 264.58764648 C38.99574706 258.12729284 35.17876922 251.58834429 31.35430908 245.05419922 C30.25823626 243.18155014 29.16116701 241.30948756 28.06396484 239.4375 C27.3264127 238.17843503 26.58894544 236.91932033 25.8515625 235.66015625 C25.3024823 234.72262009 25.3024823 234.72262009 24.74230957 233.7661438 C22.5781981 230.06696055 20.42890699 226.35964605 18.29039001 222.64561462 C16.64637444 219.79877666 14.9834168 216.96300795 13.32421875 214.125 C12.73358643 213.08738525 12.1429541 212.04977051 11.53442383 210.98071289 C7.58777369 204.27696 4.08149741 199.66909289 -3.55078125 197.125 C-10.81146681 196.42972231 -16.96035401 196.20873332 -22.96875 200.69921875 C-27.35024558 204.64797403 -29.99445006 208.73886884 -30.95703125 214.59765625 C-31.41484697 227.2448155 -23.15807329 237.68880124 -16.73828125 248.0625 C-15.22296521 250.52905497 -13.71233989 252.99845799 -12.203125 255.46875 C-11.8186319 256.09764633 -11.43413879 256.72654266 -11.03799438 257.37449646 C-7.23505873 263.61146802 -3.54610115 269.91302299 0.12905884 276.2258606 C3.22181737 281.53374227 6.33624846 286.82895755 9.44921875 292.125 C10.38652832 293.72432373 10.38652832 293.72432373 11.34277344 295.35595703 C13.07039596 298.28901633 14.81834351 301.20878991 16.57421875 304.125 C17.07018555 304.97312256 17.56615234 305.82124512 18.07714844 306.69506836 C21.75191177 312.72658157 25.54638159 316.82405428 32.44921875 319.125 C34.4076714 319.22165947 36.36927773 319.25834496 38.33010864 319.26303101 C40.17210594 319.27121101 40.17210594 319.27121101 42.05131531 319.27955627 C43.41458125 319.28067607 44.77784724 319.28172659 46.14111328 319.28271484 C47.57521215 319.28738362 49.00930955 319.2925273 50.44340515 319.29811096 C53.53397609 319.30939191 56.62453739 319.31782627 59.71512222 319.32423019 C64.60738965 319.33491674 69.49958807 319.35516494 74.39181519 319.37734985 C88.3044721 319.43924691 102.21712549 319.49323065 116.12988281 319.52636719 C123.8121848 319.54474472 131.49437162 319.57372221 139.17658889 319.6143719 C143.23960292 319.635394 147.3024721 319.65089229 151.36554337 319.65317917 C155.19219916 319.65533542 159.01855368 319.67130368 162.84511757 319.69756889 C164.24424767 319.704727 165.64341442 319.7068799 167.04255867 319.70346642 C177.20531609 319.6826457 186.15896879 320.10974989 193.87158203 327.33935547 C196.78236175 330.63391487 198.81060909 334.33133911 200.88671875 338.1875 C201.38768066 339.09016602 201.88864258 339.99283203 202.40478516 340.92285156 C204.09933444 343.98321065 205.77374984 347.05415859 207.44921875 350.125 C208.72772056 352.44222235 210.00744258 354.75872412 211.2890625 357.07421875 C213.66814038 361.37531119 216.04255458 365.67891358 218.41119385 369.98576355 C222.41193403 377.25900927 226.44901908 384.5111338 230.51171875 391.75 C235.32242121 400.32283972 240.11470708 408.9055569 244.88671875 417.5 C245.50796631 418.61874512 246.12921387 419.73749023 246.76928711 420.89013672 C249.93928749 426.60015681 253.10701701 432.31143158 256.2734375 438.0234375 C262.10508158 448.53834037 267.9531734 459.0422066 273.88671875 469.5 C279.13311047 478.74823398 284.28477027 488.04675448 289.41131592 497.36169434 C294.6437025 506.86814809 299.91932444 516.34911785 305.23022461 525.81201172 C309.49036454 533.4050456 313.72508527 541.01188158 317.94921875 548.625 C322.76420706 557.30202958 327.59572301 565.96945076 332.44921875 574.625 C337.11777798 582.95331092 341.77635584 591.28706904 346.41674805 599.63110352 C347.34823611 601.3058126 348.28054571 602.98006466 349.21289062 604.65429688 C350.3785507 606.75196866 351.53905067 608.85251711 352.6940918 610.95605469 C353.9129059 613.15666772 355.15577856 615.3440589 356.41723633 617.52050781 C361.52928914 626.52291396 363.15515823 632.87849724 361.44921875 643.125 C358.83990412 649.9732734 353.9871157 654.06206729 347.44921875 657.125 C344.0845442 657.80497101 340.82300452 657.80612887 337.39845276 657.76664734 C336.41383133 657.77515286 335.42920991 657.78365838 334.41475147 657.79242164 C331.12972919 657.81462959 327.84584628 657.80127246 324.56079102 657.7878418 C322.19985139 657.79625777 319.83891849 657.80678412 317.47799683 657.81925964 C311.07505864 657.84630562 304.67251014 657.84160723 298.26954007 657.82955909 C294.26794377 657.82293493 290.26637831 657.82657509 286.26478386 657.83301735 C285.26701441 657.83459968 285.26701441 657.83459968 284.249088 657.83621398 C282.89759483 657.838385 281.54610168 657.84057178 280.19460856 657.84277413 C267.53320476 657.86218584 254.87197672 657.85022369 242.21058732 657.82798818 C231.35860944 657.80974086 220.50697187 657.82063933 209.6550293 657.85229492 C197.03916488 657.88909411 184.42351291 657.90606636 171.80759472 657.89288265 C170.46088631 657.89154161 169.11417787 657.89023263 167.76746941 657.88895607 C167.10494514 657.8883254 166.44242088 657.88769474 165.75982012 657.88704496 C161.10261272 657.88402332 156.44565155 657.89558598 151.78848457 657.91220665 C145.51327133 657.93346171 139.2387579 657.92547558 132.96358871 657.89511299 C130.66302289 657.8887868 128.3624027 657.89264332 126.0618763 657.90752411 C122.9161072 657.92622023 119.77262402 657.90777789 116.62696838 657.88017273 C115.72092238 657.89423918 114.81487637 657.90830563 113.88137442 657.92279834 C107.03419054 657.80207856 102.65977839 655.519184 97.44921875 651.125 C95.26977539 648.54370117 95.26977539 648.54370117 93.796875 645.98046875 C93.23629395 645.02575684 92.67571289 644.07104492 92.09814453 643.08740234 C91.55399902 642.10980957 91.00985352 641.1322168 90.44921875 640.125 C89.91151855 639.18736816 89.37381836 638.24973633 88.81982422 637.28369141 C87.1510548 634.34792121 85.5160067 631.39534616 83.88671875 628.4375 C79.13494796 619.87471949 74.29127536 611.37714945 69.32421875 602.9375 C64.33026444 594.43939321 59.52594371 585.8595864 54.83837891 577.18920898 C50.07602216 568.39358851 45.1176907 559.71706316 40.12988281 551.04785156 C31.56532786 536.15318975 23.04184805 521.23527137 14.63671875 506.25 C13.76587646 504.69974121 13.76587646 504.69974121 12.87744141 503.11816406 C11.39015024 500.45978098 9.91670112 497.79435209 8.44921875 495.125 C7.83691406 494.02414062 7.22460938 492.92328125 6.59375 491.7890625 C4.19210219 486.19887886 4.55030774 480.09640029 6.29296875 474.3359375 C8.94880646 468.39619234 12.55218341 464.01973045 18.44921875 461.125 C25.92889656 458.68677308 33.29310966 458.81526781 41.09765625 458.82421875 C42.51958336 458.82032327 43.94150933 458.81598687 45.36343384 458.81123352 C48.33379906 458.8038037 51.30404536 458.80403875 54.27441406 458.80932617 C58.05565316 458.81511425 61.83640137 458.79819042 65.61755943 458.7749815 C68.55177594 458.76015298 71.48587671 458.75938479 74.42012405 458.76249123 C75.81299435 458.76198251 77.2058719 458.75683048 78.59870529 458.74667931 C88.67224353 458.68226336 99.07337188 458.77469526 106.78173828 466.11621094 C110.47772098 470.56870664 113.12452189 475.69021424 115.88671875 480.75 C116.58104563 481.99659031 117.2768769 483.24234375 117.97412109 484.48730469 C119.42044321 487.07262094 120.86026714 489.66139212 122.29541016 492.25292969 C125.33990333 497.74005174 128.45633741 503.18585731 131.57528687 508.63088989 C132.57310444 510.37305445 133.56952988 512.1160089 134.56567383 513.85913086 C139.04474152 521.69072459 143.54387769 529.51044843 148.07421875 537.3125 C148.62996582 538.27381836 149.18571289 539.23513672 149.75830078 540.22558594 C157.0583425 553.69444905 157.0583425 553.69444905 169.38671875 561.875 C177.77959508 562.89231834 183.64481705 561.61249342 190.69921875 557 C195.0168578 552.48610463 197.60063742 547.38116592 197.88671875 541.0625 C196.92258047 532.38525551 192.5464401 525.53864555 188.13671875 518.1875 C183.12792568 509.72634799 178.22376624 501.22053614 173.44921875 492.625 C168.334375 483.43741017 163.11978831 474.31606605 157.78491211 465.25439453 C154.97500791 460.47736047 152.19126793 455.69013505 149.48731995 450.85209656 C148.48628395 449.06118498 147.47999295 447.27332019 146.47241211 445.48608398 C145.19915176 443.22224579 143.93630842 440.95250546 142.68579102 438.67602539 C137.94686429 430.29025678 133.89767384 424.85391846 124.44921875 422.125 C121.35335443 421.82966421 121.35335443 421.82966421 118.08694458 421.8734436 C116.82813477 421.86806076 115.56932495 421.86267792 114.27236938 421.85713196 C112.89007523 421.86114557 111.50778153 421.86531646 110.12548828 421.86962891 C108.65976772 421.86687682 107.19404864 421.86319559 105.72833252 421.85865784 C102.57885852 421.85056318 99.42945545 421.84837301 96.27997208 421.85060501 C91.29530316 421.85344469 86.31077522 421.83906163 81.32614136 421.82162476 C67.15413523 421.77466057 52.98213911 421.75065991 38.81005859 421.74414062 C30.97757886 421.74038559 23.14525913 421.72232199 15.31284797 421.68904626 C10.36243613 421.66887286 5.4124381 421.66644181 0.46200204 421.67732644 C-2.62392019 421.67994107 -5.70960347 421.66589321 -8.79546356 421.64724541 C-10.22082522 421.64194146 -11.64623137 421.64338939 -13.07157516 421.65228081 C-22.06525337 421.7038368 -28.50082306 421.31733957 -35.6237793 415.40405273 C-40.37024096 409.76680935 -43.87699671 403.66329446 -47.36328125 397.1875 C-48.59886522 394.93673353 -49.83584722 392.68673396 -51.07421875 390.4375 C-51.67073242 389.34953125 -52.26724609 388.2615625 -52.88183594 387.140625 C-55.01734089 383.28197123 -57.23227563 379.47659759 -59.48828125 375.6875 C-69.3743615 359.0253826 -78.95723145 342.18438347 -88.55938721 325.35751343 C-93.36685053 316.93333431 -98.19786409 308.52310086 -103.05078125 300.125 C-108.57916385 290.55798843 -114.07533358 280.97304258 -119.5489502 271.37463379 C-123.2649807 264.85847332 -126.99265395 258.34955916 -130.75390625 251.859375 C-131.26697327 250.97336609 -131.26697327 250.97336609 -131.79040527 250.06945801 C-133.41715167 247.26068306 -135.04631072 244.45336312 -136.6796875 241.6484375 C-147.29380514 223.33849621 -147.29380514 223.33849621 -146.55078125 214.125 C-144.09721137 206.22644768 -139.92224022 199.20488098 -135.73828125 192.125 C-134.73208805 190.40206644 -133.72590541 188.6791266 -132.72036743 186.95581055 C-131.68328367 185.18028147 -130.64336047 183.40643927 -129.60302734 181.6328125 C-126.38915608 176.14744208 -123.22276645 170.63465587 -120.05078125 165.125 C-118.80099758 162.95820854 -117.55099702 160.79154217 -116.30078125 158.625 C-115.68203125 157.5525 -115.06328125 156.48 -114.42578125 155.375 C-97.55078125 126.125 -80.67578125 96.875 -63.80078125 67.625 C-63.18154785 66.55161377 -62.56231445 65.47822754 -61.92431641 64.37231445 C-60.67936843 62.21450197 -59.43425235 60.05678647 -58.18896484 57.89916992 C-54.98525474 52.34783408 -51.78484495 46.79463459 -48.58984375 41.23828125 C-45.46242439 35.80016701 -42.32281828 30.36924232 -39.17675781 24.94189453 C-37.72397824 22.42505208 -36.28724748 19.89991424 -34.85546875 17.37109375 C-27.07480097 3.78083943 -16.74566462 -5.74430149 0 0 Z " fill="#458F36" transform="translate(420.55078125,73.875)"/>
<path d="M0 0 C7.24125398 5.98499715 11.39405847 16.04517431 15.94921875 24.09765625 C16.65858396 25.34585672 17.36822388 26.59390112 18.078125 27.84179688 C20.18577317 31.54938148 22.28721279 35.26045615 24.38671875 38.97265625 C24.96405762 39.99327148 25.54139648 41.01388672 26.13623047 42.06542969 C28.24369876 45.79300233 30.3501057 49.52116723 32.45361328 53.25097656 C37.05146432 61.39831788 41.69825313 69.51740116 46.3480835 77.63513184 C51.12029164 85.96947589 55.83731733 94.33297524 60.51171875 102.72265625 C65.02436781 110.81992937 69.62822232 118.85538093 74.32421875 126.84765625 C80.00796427 136.52359438 85.49462135 146.29821564 90.92382812 156.11889648 C96.11410496 165.50303018 101.40814922 174.82312262 106.75 184.12158203 C109.94836401 189.69295657 113.13616742 195.27037658 116.32421875 200.84765625 C116.66605194 201.44552948 117.00788513 202.04340271 117.3600769 202.65939331 C122.4190429 211.50888912 127.44814229 220.37485689 132.45507812 229.25390625 C137.05280609 237.40006475 141.6987947 245.51834664 146.3480835 253.63513184 C151.12029164 261.96947589 155.83731733 270.33297524 160.51171875 278.72265625 C165.02438151 286.81995395 169.62917008 294.85480856 174.32421875 302.84765625 C179.1427551 311.07113645 183.90983248 319.32167877 188.57498169 327.63311768 C189.54547062 329.35903071 190.52347848 331.08070909 191.50170898 332.80224609 C200.46202919 348.84953046 200.46202919 348.84953046 199.02734375 357.76953125 C197.01373438 364.69438298 192.67175258 369.29444031 186.65027022 373.05796486 C183.59393887 374.29301518 181.02830144 374.2273471 177.73239517 374.23271847 C177.06158059 374.23652414 176.390766 374.24032981 175.6996237 374.2442508 C173.44161894 374.25459439 171.18386427 374.25065538 168.92584229 374.24681091 C167.29466816 374.25126183 165.66349619 374.25657538 164.03232741 374.26267964 C159.54176989 374.27688778 155.05128149 374.2785224 150.56070471 374.27808273 C145.72075303 374.27972846 140.88083003 374.29279042 136.04089355 374.30427551 C125.45415446 374.32714364 114.86743538 374.33504807 104.28067493 374.34010196 C97.67199466 374.34335687 91.06332022 374.3498781 84.45464325 374.35710335 C66.16200574 374.37667163 47.86937366 374.3930745 29.57672501 374.39597988 C28.40570393 374.39616745 27.23468286 374.39635502 26.02817629 374.39654827 C23.65416193 374.39691453 21.28014757 374.39727823 18.9061332 374.39763939 C17.72764636 374.3978222 16.54915951 374.39800501 15.33496094 374.39819336 C13.5650765 374.39846418 13.5650765 374.39846418 11.75943682 374.39874048 C-7.36294016 374.40228271 -26.48520456 374.42930717 -45.60754248 374.46669125 C-65.23376917 374.5047538 -84.85993996 374.52413721 -104.48620439 374.52443939 C-115.50823132 374.52502443 -126.53012398 374.53354595 -137.55211639 374.56243706 C-146.93698436 374.58692348 -156.32166908 374.59425234 -165.70656034 374.57918953 C-170.49544347 374.57200943 -175.28396454 374.57292544 -180.07280731 374.59560013 C-184.45755106 374.61616265 -188.84165379 374.61361546 -193.22639039 374.59272528 C-194.81187179 374.58922515 -196.39739918 374.59416264 -197.98282024 374.60842972 C-213.64618982 374.74028901 -213.64618982 374.74028901 -219.61328125 368.97265625 C-224.82521732 362.97964049 -226.28561804 357.63636904 -226.19921875 349.80859375 C-225.13865476 342.86543485 -221.54326286 337.27294691 -217.99462891 331.30322266 C-216.60143204 328.95266464 -215.2490563 326.58278783 -213.90625 324.203125 C-211.40691307 319.78128802 -208.87804769 315.37710336 -206.34228516 310.97607422 C-203.13077764 305.39742899 -199.9340337 299.81033561 -196.73828125 294.22265625 C-196.39926788 293.63024139 -196.06025452 293.03782654 -195.71096802 292.42745972 C-190.92015971 284.05331263 -186.18452449 275.65031556 -181.48828125 267.22265625 C-176.41708073 258.12329348 -171.21030906 249.11298881 -165.93310547 240.13183594 C-160.88656255 231.51153678 -156.04446936 222.78498609 -151.21899414 214.03955078 C-146.56497223 205.62750703 -141.75738124 197.3169165 -136.8828125 189.03125 C-132.51064891 181.57400918 -128.28952382 174.04112058 -124.11328125 166.47265625 C-118.84980745 156.93824168 -113.46465751 147.48884866 -107.95092773 138.09716797 C-103.47089934 130.46173948 -99.05968738 122.78853206 -94.67578125 115.09765625 C-84.17450566 96.68302671 -73.58611329 78.31985314 -62.88671875 60.01953125 C-59.20148786 53.71147838 -55.54445243 47.38787786 -51.90429688 41.05371094 C-49.41003323 36.7173535 -46.90512198 32.38721483 -44.39746094 28.05859375 C-43.22741845 26.03487494 -42.06126213 24.00890321 -40.89941406 21.98046875 C-39.31649842 19.22041737 -37.71716632 16.47056046 -36.11328125 13.72265625 C-35.42951416 12.51754395 -35.42951416 12.51754395 -34.73193359 11.28808594 C-26.71058521 -2.31804207 -14.66467512 -6.94642506 0 0 Z " fill="#398139" transform="translate(263.61328125,357.02734375)"/>
<path d="M0 0 C28.38 0 56.76 0 86 0 C86 134.31 86 268.62 86 407 C58.94 407 31.88 407 4 407 C3.67 396.44 3.34 385.88 3 375 C1.329375 376.77375 -0.34125 378.5475 -2.0625 380.375 C-23.79048823 402.47734845 -54.2565475 410.72967155 -84.51708984 411.23242188 C-118.69718979 411.43384332 -153.00870499 402.84643934 -180 381 C-180.55284668 380.55253418 -181.10569336 380.10506836 -181.67529297 379.64404297 C-212.20634446 354.72770599 -230.4476472 319.48590274 -234.53540039 280.30078125 C-238.37016492 234.38360075 -229.41638773 191.13300403 -199.58496094 155.30029297 C-175.02202613 126.39912838 -139.15307061 110.6657866 -101.79296875 107.53125 C-66.87415857 105.09242613 -33.50443154 112.16616644 -6.2421875 135.01953125 C-4.43568563 136.61516966 -2.70433432 138.29566568 -1 140 C-0.67 93.8 -0.34 47.6 0 0 Z M-131 205 C-146.20050615 226.24859487 -150.47594905 250.67717828 -146.6796875 276.2109375 C-143.16469787 295.80599464 -134.07488485 313.86387222 -117.9296875 326.0859375 C-99.5192618 338.11408229 -78.46532233 343.09547172 -56.6875 338.8125 C-36.88187189 333.94040613 -20.96090259 322.81839978 -10.07739258 305.55126953 C-1.48143324 291.07489702 1.39055132 275.86672796 1.3125 259.1875 C1.30758545 257.94863037 1.3026709 256.70976074 1.29760742 255.43334961 C1.18798067 246.89764196 0.68655164 239.15675921 -2 231 C-2.35191406 229.90171875 -2.70382813 228.8034375 -3.06640625 227.671875 C-10.13163584 207.61874811 -23.53153786 194.14236991 -41.9609375 184.44140625 C-72.50317966 170.34176843 -109.62524231 179.45277249 -131 205 Z " fill="#084848" transform="translate(3766,318)"/>
<path d="M0 0 C28.38 0 56.76 0 86 0 C86 134.31 86 268.62 86 407 C58.94 407 31.88 407 4 407 C3.67 396.44 3.34 385.88 3 375 C1.329375 376.77375 -0.34125 378.5475 -2.0625 380.375 C-23.79048823 402.47734845 -54.2565475 410.72967155 -84.51708984 411.23242188 C-118.69718979 411.43384332 -153.00870499 402.84643934 -180 381 C-180.55284668 380.55253418 -181.10569336 380.10506836 -181.67529297 379.64404297 C-212.20634446 354.72770599 -230.4476472 319.48590274 -234.53540039 280.30078125 C-238.37016492 234.38360075 -229.41638773 191.13300403 -199.58496094 155.30029297 C-175.02202613 126.39912838 -139.15307061 110.6657866 -101.79296875 107.53125 C-66.87415857 105.09242613 -33.50443154 112.16616644 -6.2421875 135.01953125 C-4.43568563 136.61516966 -2.70433432 138.29566568 -1 140 C-0.67 93.8 -0.34 47.6 0 0 Z M-131 205 C-146.20050615 226.24859487 -150.47594905 250.67717828 -146.6796875 276.2109375 C-143.16469787 295.80599464 -134.07488485 313.86387222 -117.9296875 326.0859375 C-99.5192618 338.11408229 -78.46532233 343.09547172 -56.6875 338.8125 C-36.88187189 333.94040613 -20.96090259 322.81839978 -10.07739258 305.55126953 C-1.48143324 291.07489702 1.39055132 275.86672796 1.3125 259.1875 C1.30758545 257.94863037 1.3026709 256.70976074 1.29760742 255.43334961 C1.18798067 246.89764196 0.68655164 239.15675921 -2 231 C-2.35191406 229.90171875 -2.70382813 228.8034375 -3.06640625 227.671875 C-10.13163584 207.61874811 -23.53153786 194.14236991 -41.9609375 184.44140625 C-72.50317966 170.34176843 -109.62524231 179.45277249 -131 205 Z " fill="#0C4C46" transform="translate(2305,318)"/>
<path d="M0 0 C29.04 0 58.08 0 88 0 C95.87240356 15.74480712 95.87240356 15.74480712 98.48046875 21.66015625 C98.77092575 22.31618332 99.06138275 22.97221039 99.36064148 23.64811707 C99.98221308 25.05312391 100.60227509 26.45879948 101.22088623 27.8651123 C102.22830837 30.15526903 103.23991901 32.44353922 104.25244141 34.73144531 C105.72780021 38.06595219 107.20160622 41.40113893 108.67431641 44.73681641 C112.72759652 53.91391276 116.80149601 63.08186738 120.875 72.25 C121.29563721 73.19699768 121.71627441 74.14399536 122.1496582 75.11968994 C129.23084889 91.0591323 136.37200419 106.97096336 143.53793335 122.87245178 C143.90311066 123.68282394 144.26828796 124.49319611 144.64453125 125.328125 C145.0076944 126.13402573 145.37085754 126.93992645 145.74502563 127.77024841 C149.6343205 136.40367534 153.50789247 145.04411482 157.375 153.6875 C157.7196228 154.45772491 158.06424561 155.22794983 158.41931152 156.02151489 C164.70907834 170.08305058 170.95978402 184.16185631 177.20980835 198.24108887 C183.16632748 211.65623198 189.15702268 225.05544285 195.1875 238.4375 C195.55739044 239.25834076 195.92728088 240.07918152 196.30838013 240.92489624 C197.05160917 242.57417349 197.79483934 244.22345023 198.53807068 245.87272644 C199.08576866 247.08814873 199.08576866 247.08814873 199.64453125 248.328125 C200.18926842 249.53696098 200.18926842 249.53696098 200.74501038 250.7702179 C204.63431437 259.40365316 208.50788784 268.04410445 212.375 276.6875 C212.8919342 277.84283737 212.8919342 277.84283737 213.41931152 279.02151489 C217.58545166 288.33542587 221.738295 297.65518063 225.87890625 306.98046875 C226.29368225 307.91452042 226.70845825 308.84857208 227.13580322 309.81092834 C228.82213525 313.60892081 230.50828742 317.40699154 232.19268799 321.20584106 C236.84655615 331.70173385 241.52517287 342.18528152 246.26953125 352.640625 C246.69205673 353.57319122 247.11458221 354.50575745 247.5499115 355.46658325 C249.56547909 359.91493997 251.58621773 364.36078844 253.61694336 368.80224609 C254.33341527 370.38107387 255.04965601 371.96000659 255.765625 373.5390625 C256.09581131 374.25555969 256.42599762 374.97205688 256.76618958 375.71026611 C258.09417275 378.65240249 259 380.73266916 259 384 C227.98 384 196.96 384 165 384 C143.4487531 332.02346337 143.4487531 332.02346337 139.8815918 323.35424805 C139.22319016 321.75600233 138.56323836 320.15839471 137.90209961 318.5612793 C136.89886913 316.13725501 135.90007578 313.7114479 134.90234375 311.28515625 C134.45736794 310.21395287 134.45736794 310.21395287 134.00340271 309.12110901 C132 304.22829789 132 304.22829789 132 302 C73.59 302.33 15.18 302.66 -45 303 C-60.98187467 341.64944987 -60.98187467 341.64944987 -76.44873047 380.49536133 C-78 383 -78 383 -80.06233215 383.65518188 C-83.90284014 384.10597374 -87.69539935 384.08451989 -91.55395508 384.02172852 C-92.40324585 384.01212097 -93.25253662 384.00251343 -94.12756348 383.99261475 C-96.9249731 383.95972596 -99.72222158 383.91935527 -102.51953125 383.87890625 C-104.46294086 383.85459524 -106.40635637 383.83075217 -108.34977722 383.80735779 C-113.45765932 383.74461451 -118.56543648 383.6755203 -123.67321777 383.60510254 C-128.88821648 383.53433089 -134.10328942 383.46956681 -139.31835938 383.40429688 C-149.5456545 383.27541032 -159.77284883 383.13981417 -170 383 C-169.44458852 379.86974825 -168.75540521 377.11534444 -167.42797852 374.22753906 C-167.10503311 373.51772888 -166.78208771 372.8079187 -166.44935608 372.07659912 C-166.09610764 371.31397766 -165.74285919 370.5513562 -165.37890625 369.765625 C-165.00781235 368.95256897 -164.63671844 368.13951294 -164.25437927 367.30181885 C-163.45014442 365.54047693 -162.64366692 363.78015767 -161.83520508 362.02075195 C-159.65029722 357.26408223 -157.48340516 352.49922419 -155.31640625 347.734375 C-154.87036041 346.75428467 -154.42431458 345.77419434 -153.9647522 344.7644043 C-149.55178051 335.04928827 -145.26663969 325.28004401 -141 315.5 C-134.55237996 300.7333105 -127.9693799 286.03352764 -121.30224609 271.36474609 C-115.4359168 258.45212 -109.67672517 245.49704006 -104 232.5 C-97.55066463 217.7340447 -90.96939268 203.03355576 -84.30224609 188.36474609 C-78.4359168 175.45212 -72.67672517 162.49704006 -67 149.5 C-60.55066463 134.7340447 -53.96939268 120.03355576 -47.30224609 105.36474609 C-41.43591514 92.45211635 -35.67691549 79.49695975 -30 66.5 C-23.60031264 51.84987124 -17.09459262 37.25097821 -10.5 22.6875 C-10.08427734 21.76888184 -9.66855469 20.85026367 -9.24023438 19.90380859 C-8.06768551 17.3141961 -6.89365939 14.72526102 -5.71875 12.13671875 C-5.19661926 10.98504463 -5.19661926 10.98504463 -4.66394043 9.81010437 C-4.17963562 8.7452758 -4.17963562 8.7452758 -3.68554688 7.65893555 C-3.40674683 7.0453569 -3.12794678 6.43177826 -2.84069824 5.79960632 C-1.92959032 3.84928039 -0.96269298 1.92538596 0 0 Z M43 90 C35.8222748 106.51073927 28.85811519 123.10421697 22 139.75 C21.60270691 140.71428925 21.20541382 141.67857849 20.79608154 142.67208862 C20.39463928 143.64646881 19.99319702 144.620849 19.57958984 145.62475586 C13.52227504 160.32562517 7.42993384 175.01154649 1.3125 189.6875 C0.69507935 191.16941833 0.69507935 191.16941833 0.06518555 192.68127441 C-1.12663623 195.54162274 -2.31909345 198.40170537 -3.51171875 201.26171875 C-3.8872287 202.16302521 -4.26273865 203.06433167 -4.64962769 203.99295044 C-6.53641861 208.51606248 -8.43615474 213.03312601 -10.35791016 217.54150391 C-10.73236771 218.42224075 -11.10682526 219.3029776 -11.49263 220.21040344 C-12.20191532 221.87659556 -12.91415774 223.54153297 -13.62980652 225.20500183 C-15.37236098 228.96799138 -15.37236098 228.96799138 -16 233 C23.27 233 62.54 233 103 233 C96.71945535 217.29863839 90.41141861 201.62069187 83.9375 186 C83.11626853 184.01558714 82.29514464 182.03112976 81.47412109 180.04663086 C79.3887934 175.00729162 77.30160577 169.96872501 75.21392822 164.93035889 C73.66139234 161.18261891 72.11027126 157.43429425 70.55917358 153.68595886 C61.76373787 132.43300278 52.92034416 111.20084967 44 90 C43.67 90 43.34 90 43 90 Z " fill="#236740" transform="translate(1107,341)"/>
<path d="M0 0 C0.80695312 0.29100586 1.61390625 0.58201172 2.4453125 0.88183594 C14.98282817 5.4669568 26.50759636 11.2266993 38 18 C37.39635179 22.70325755 36.08731006 26.63466353 34.26171875 31.00390625 C33.98456528 31.67233047 33.7074118 32.3407547 33.42185974 33.0294342 C32.51629118 35.20962642 31.6019533 37.38602135 30.6875 39.5625 C30.05846718 41.07249792 29.43005592 42.58275491 28.80224609 44.09326172 C27.51331948 47.1922071 26.22110932 50.2897513 24.92626953 53.38623047 C23.0745524 57.8170044 21.23593941 62.2531066 19.40234375 66.69140625 C19.12241074 67.3689949 18.84247772 68.04658356 18.55406189 68.7447052 C18.00886707 70.06455699 17.46371517 71.38442652 16.91860962 72.70431519 C14.94908802 77.47092857 12.97406965 82.23526887 11 87 C7.66329351 85.70524697 4.45332429 84.2824676 1.25390625 82.6796875 C-40.81650347 61.8814202 -90.62187521 48.68076765 -136.9375 63.25 C-147.86974782 67.16690162 -157.53196413 72.9247425 -163.27734375 83.30859375 C-167.21742228 92.0721136 -168.36599816 101.57163007 -165.046875 110.69921875 C-159.94251771 121.91737712 -149.29791234 128.13783716 -138.14656067 132.4781189 C-125.05259166 137.31304298 -111.58685281 140.58051827 -98.03921509 143.85205078 C-91.60003613 145.40729169 -85.17050336 147.00170499 -78.74031639 148.59363556 C-76.64046186 149.11336061 -74.54036455 149.6320967 -72.44026184 150.15081787 C18.41006608 172.62095958 18.41006608 172.62095958 42.09692383 210.83203125 C55.42293282 233.39485204 58.24619259 263.9636126 51.76806641 289.31835938 C50.02742722 295.44992045 47.80411048 301.28212109 45 307 C44.49726563 308.04414062 43.99453125 309.08828125 43.4765625 310.1640625 C28.35985215 339.90068989 0.24763418 360.13205659 -30.9296875 370.73046875 C-45.65975857 375.44104539 -60.6409768 378.30856142 -76 380 C-76.8669751 380.09571289 -77.7339502 380.19142578 -78.62719727 380.29003906 C-88.05023908 381.20234189 -97.47869368 381.24343702 -106.9375 381.25 C-107.8161673 381.25067474 -108.69483459 381.25134949 -109.60012817 381.25204468 C-161.2590455 381.18945333 -220.44957483 370.48866132 -262.76220703 338.67504883 C-264 337 -264 337 -263.88598633 334.76220703 C-262.78107065 331.317452 -261.35734768 328.07403379 -259.82421875 324.8046875 C-259.50267319 324.10718384 -259.18112762 323.40968018 -258.84983826 322.69104004 C-257.80050587 320.41678226 -256.74407047 318.14590292 -255.6875 315.875 C-254.22775965 312.71999774 -252.77170633 309.5633025 -251.31640625 306.40625 C-250.76868561 305.219673 -250.76868561 305.219673 -250.2098999 304.00912476 C-247.87214363 298.93274799 -245.58297698 293.83760684 -243.33984375 288.71875 C-243.06224716 288.08639435 -242.78465057 287.4540387 -242.49864197 286.80252075 C-241.20111935 283.84314113 -239.91167116 280.88054581 -238.6315918 277.91357422 C-237.95157104 276.35920654 -237.95157104 276.35920654 -237.2578125 274.7734375 C-236.8673877 273.87028809 -236.47696289 272.96713867 -236.07470703 272.03662109 C-235 270 -235 270 -233 269 C-230.55368186 270.41227594 -228.22540259 271.87830835 -225.875 273.4375 C-199.73053854 290.23476414 -170.42382568 300.3245901 -140 306 C-138.92347168 306.20133545 -138.92347168 306.20133545 -137.82519531 306.40673828 C-110.22730967 311.26128967 -73.81335647 311.28470417 -49.5234375 295.87890625 C-41.49840814 289.90361349 -36.57150319 282.11515259 -35.0625 272.1875 C-34.54009064 263.78976952 -36.61465661 255.29836206 -42.08984375 248.80078125 C-60.47527488 231.46809464 -90.46534526 226.91508635 -114.10159302 221.43078613 C-170.54799962 208.28864394 -170.54799962 208.28864394 -196 196 C-197.15725586 195.443125 -197.15725586 195.443125 -198.33789062 194.875 C-218.89408618 184.83227851 -235.73943207 171.06600155 -247 151 C-247.50144531 150.11054688 -248.00289062 149.22109375 -248.51953125 148.3046875 C-260.43015474 124.77131057 -259.24393113 94.01741783 -251.65698242 69.40551758 C-241.68117522 39.3728104 -219.05265169 17.20236431 -191.22949219 3.07470703 C-134.66637431 -24.19104471 -57.99858958 -21.17448507 0 0 Z " fill="#0A4A47" transform="translate(2719,350)"/>
<path d="M0 0 C28.38 0 56.76 0 86 0 C86.33 74.91 86.66 149.82 87 227 C94.74702897 220.08164652 94.74702897 220.08164652 102.125 212.875 C104.97930283 209.98518485 107.84801378 207.19894547 110.9375 204.5625 C114.28925119 201.69827626 117.40556078 198.63665531 120.5 195.5 C123.55337618 192.40508128 126.62323708 189.38065703 129.9375 186.5625 C133.47679074 183.54647196 136.73494745 180.30552422 140 177 C143.85121937 173.10104317 147.76421729 169.39175703 151.94140625 165.83984375 C155.07153162 163.04233133 157.98685658 160.03375494 160.93383789 157.04663086 C164.13385771 153.82001347 167.45072272 150.82069539 170.90625 147.875 C173.53985556 145.51654726 176.01826218 143.0155432 178.5 140.5 C181.55337951 137.40508498 184.62323685 134.38065723 187.9375 131.5625 C192.0922589 128.02580441 195.89257008 124.1637018 199.70092773 120.26196289 C201.11548667 118.82292165 202.55731695 117.41084453 204 116 C204.67669235 115.29224426 205.3533847 114.58448853 206.05058289 113.85528564 C210.3410667 111.15642254 214.05143367 111.47025712 219.02270508 111.54589844 C220.02805298 111.54531433 221.03340088 111.54473022 222.06921387 111.54412842 C225.38633971 111.54691118 228.70256272 111.57801328 232.01953125 111.609375 C234.32166554 111.61683668 236.62380618 111.62252996 238.9259491 111.62652588 C244.98088156 111.6417878 251.03542934 111.681075 257.09020996 111.7253418 C263.2703735 111.76628211 269.45059928 111.78453428 275.63085938 111.8046875 C287.75407513 111.84756824 299.87700556 111.91582679 312 112 C311.03975225 113.12704093 310.07855029 114.25326891 309.11694336 115.37915039 C308.58177597 116.00640518 308.04660858 116.63365997 307.495224 117.27992249 C305.92498244 119.08629879 304.28882721 120.78005368 302.5625 122.4375 C300.25894873 124.69356222 298.10851614 127.00380941 296.02929688 129.46679688 C291.48347942 134.69161288 286.57095422 139.54143228 281.65846252 144.41670227 C279.93127324 146.13094586 278.2073868 147.84845302 276.48425293 149.56677246 C272.20690193 153.83086477 267.92408241 158.08945061 263.64141846 162.34820557 C260.01102552 165.95875702 256.38276463 169.57142642 252.75721741 173.18684387 C251.0716171 174.86603635 249.38299859 176.54215076 247.69421387 178.21813965 C242.86807584 183.02146932 238.15929737 187.86128922 233.73251343 193.04040527 C230.12468909 197.12110874 226.20924118 200.91157161 222.34765625 204.75 C221.44752304 205.64871826 220.54738983 206.54743652 219.61997986 207.47338867 C217.25288737 209.83586575 214.88365361 212.19615112 212.51330566 214.55535889 C210.08449258 216.97385181 207.65858897 219.39525946 205.23242188 221.81640625 C200.49092631 226.54692954 195.74658102 231.27457973 191 236 C193.38779195 240.06724576 196.05892391 243.75804373 199 247.4375 C199.98966034 248.68613688 200.97924147 249.93483655 201.96875 251.18359375 C202.47277344 251.81765137 202.97679688 252.45170898 203.49609375 253.10498047 C205.84208379 256.06108026 208.17052979 259.03087847 210.5 262 C211.41789699 263.16802514 212.33586591 264.33599377 213.25390625 265.50390625 C215.07603378 267.82280124 216.89618794 270.14322515 218.71484375 272.46484375 C222.91000342 277.81695098 227.1182858 283.15642325 231.38085938 288.45507812 C236.15236466 294.38671411 240.83538133 300.37336132 245.4375 306.4375 C250.27993016 312.81644958 255.25852791 319.06423312 260.33349609 325.25927734 C263.64575979 329.31005242 266.89033111 333.40118768 270.0625 337.5625 C273.58284562 342.17869514 277.17033813 346.72946911 280.8125 351.25 C285.10672048 356.58289974 289.2992456 361.98281081 293.4375 367.4375 C297.7555655 373.12590753 302.16405824 378.72349938 306.6875 384.25 C310.77892794 389.25358078 314.84306641 394.27380059 318.8125 399.375 C319.62332031 400.41398437 320.43414063 401.45296875 321.26953125 402.5234375 C323 405 323 405 323 407 C309.57855171 407.20871755 296.15749071 407.3685405 282.73474884 407.46630955 C276.50161842 407.51323947 270.26959987 407.57687189 264.03710938 407.67895508 C258.01994437 407.77689233 252.00384729 407.8305892 245.98594666 407.85389519 C243.69253224 407.87049888 241.39917498 407.90292394 239.10621643 407.95157051 C221.1275266 408.31775894 221.1275266 408.31775894 215.870224 405.0614624 C213.81845371 402.78876343 212.42058586 400.6980267 211 398 C210.06654264 396.79644514 209.11360427 395.60731799 208.12890625 394.4453125 C207.27077582 393.34060411 206.41531259 392.23381881 205.5625 391.125 C204.61413767 389.90558347 203.66490888 388.68684032 202.71484375 387.46875 C202.2544873 386.87835937 201.79413086 386.28796875 201.31982422 385.6796875 C198.7428887 382.40012472 196.08648293 379.1861962 193.4375 375.96484375 C185.81925032 366.69841506 178.26775684 357.38435672 170.87890625 347.93383789 C167.45616413 343.56248229 163.96389473 339.25319163 160.4375 334.96484375 C151.48991765 324.08148637 142.66139036 313.11246745 134 302 C133.26136719 301.05253906 132.52273437 300.10507812 131.76171875 299.12890625 C130.17250703 297.08745392 128.58557325 295.04427739 127 293 C122.22243157 296.9805395 117.73072248 301.14219178 113.3671875 305.5703125 C112.76746124 306.17382538 112.16773499 306.77733826 111.54983521 307.3991394 C109.65574526 309.30532013 107.76496424 311.21472916 105.875 313.125 C103.37533373 315.65137347 100.87229584 318.17433649 98.3671875 320.6953125 C97.52013748 321.55481003 97.52013748 321.55481003 96.65597534 322.43167114 C96.11836578 322.97258392 95.58075623 323.5134967 95.02685547 324.07080078 C94.56165497 324.5412381 94.09645447 325.01167542 93.61715698 325.49636841 C92 327 92 327 89.35203552 328.71865845 C86.70258377 331.28847693 86.40069177 332.68479944 86.31444836 336.31671524 C86.32307054 337.01431835 86.33169271 337.71192146 86.34057617 338.43066406 C86.33006131 339.18447231 86.31954645 339.93828056 86.30871296 340.71493149 C86.28037201 343.14893348 86.28599717 345.58149492 86.29296875 348.015625 C86.28044175 349.52069092 86.26568416 351.02573998 86.24865723 352.53076172 C86.20123961 358.10367671 86.19697963 363.67689135 86.1875 369.25 C86.125625 381.7075 86.06375 394.165 86 407 C57.62 407 29.24 407 0 407 C0 272.69 0 138.38 0 0 Z " fill="#084847" transform="translate(2838,318)"/>
<path d="M0 0 C1.22783203 1.04607422 1.22783203 1.04607422 2.48046875 2.11328125 C30.72222855 26.76461577 46.43472412 60.8997889 50 98 C50.12787813 100.79293197 50.14066028 103.57947205 50.1328125 106.375 C50.13424759 107.52814697 50.13424759 107.52814697 50.13571167 108.70458984 C50.13638735 110.31803469 50.13457613 111.93148236 50.13037109 113.54492188 C50.12501411 115.99355258 50.13033701 118.4419999 50.13671875 120.890625 C50.13605786 122.4687504 50.13477647 124.04687568 50.1328125 125.625 C50.13483673 126.34606934 50.13686096 127.06713867 50.13894653 127.81005859 C50.13579437 128.50437988 50.13264221 129.19870117 50.12939453 129.9140625 C50.12820114 130.8105249 50.12820114 130.8105249 50.12698364 131.72509766 C49.93495646 135.16525011 49.42736263 138.58109893 49 142 C-24.26 142 -97.52 142 -173 142 C-164.022895 164.4427625 -154.21796363 180.51102792 -132 191 C-105.50489517 202.11475703 -73.48199692 201.99557432 -46.91308594 191.14794922 C-35.82431458 186.33343095 -25.37099884 179.82811823 -17 171 C-13.6719919 172.10933603 -12.95214152 172.94789311 -10.765625 175.578125 C-7.21631738 179.76057249 -3.51781913 183.76461651 0.25 187.75 C6.55709111 194.44953233 12.79743191 201.20366619 19 208 C21.06143112 210.25098047 23.12445678 212.50049709 25.1875 214.75 C26.11851775 215.76559918 27.0495101 216.78122165 27.98046875 217.796875 C28.64691406 218.52390625 29.31335937 219.2509375 30 220 C22.16052097 237.93029563 -4.52302254 250.3210611 -21.6796875 257.37109375 C-69.39415017 275.93906467 -127.39753048 273.48134011 -174 253 C-209.45792249 236.83890607 -236.9199061 208.55526214 -251.16845703 172.23681641 C-265.46780147 133.77216764 -263.64279544 88.15792146 -246.88549805 50.75805664 C-241.44265136 39.26890765 -234.31824229 28.59545272 -226 19 C-225.30390625 18.18273437 -224.6078125 17.36546875 -223.890625 16.5234375 C-195.92903149 -15.50349408 -156.41695449 -31.90947608 -114.4375 -34.8125 C-73.7840017 -36.81022708 -31.28537844 -27.18410194 0 0 Z M-159.1875 55.5625 C-166.49293159 65.19785318 -174 78.6864297 -174 91 C-126.81 91 -79.62 91 -31 91 C-34.3538622 72.55375792 -42.22577284 55.6638149 -57.75 44.3125 C-89.64843229 23.40184332 -133.38969368 25.70717463 -159.1875 55.5625 Z " fill="#084848" transform="translate(3435,460)"/>
<path d="M0 0 C27.67884699 28.71282691 31.51469701 67.65132962 31.42602539 105.63085938 C31.42574248 107.35733539 31.42590327 109.08381153 31.4264679 110.81028748 C31.42675183 115.44350058 31.4209211 120.07668717 31.41389394 124.70989418 C31.40759248 129.5718535 31.40705127 134.43381359 31.40586853 139.29577637 C31.40277507 148.47860963 31.39458875 157.66143081 31.38451904 166.84425879 C31.37119245 179.26996735 31.36584194 191.69567928 31.36001682 204.1213932 C31.35064729 223.66427116 31.33071519 243.20712365 31.3125 262.75 C4.5825 262.75 -22.1475 262.75 -49.6875 262.75 C-50.0175 251.86 -50.3475 240.97 -50.6875 229.75 C-52.255 231.709375 -53.8225 233.66875 -55.4375 235.6875 C-71.71452574 255.23312253 -96.04099022 263.90467414 -120.78125 266.28515625 C-154.21423621 269.21551519 -190.58976506 265.00883234 -217.60546875 243.41796875 C-220.03745575 241.25824656 -222.37106591 239.03243138 -224.6875 236.75 C-225.60208984 235.94369141 -225.60208984 235.94369141 -226.53515625 235.12109375 C-239.58311948 223.262011 -247.61481782 204.20913538 -248.90698242 186.79150391 C-249.79290339 163.14837207 -246.7704742 141.46155155 -230.796875 122.98046875 C-206.91236574 97.72481173 -171.65157967 90.04576278 -138.07656479 88.64073944 C-132.06535923 88.48796074 -126.05546606 88.51849522 -120.04296875 88.5546875 C-118.16726332 88.55843304 -116.29155589 88.56127268 -114.41584778 88.56326294 C-109.55809811 88.5707784 -104.70047445 88.59031766 -99.84277344 88.6126709 C-94.85418399 88.63339513 -89.86557352 88.64232054 -84.87695312 88.65234375 C-75.14708106 88.67357933 -65.41730114 88.70756242 -55.6875 88.75 C-55.97804923 86.2048642 -56.27597833 83.66095089 -56.578125 81.1171875 C-56.65885254 80.40328857 -56.73958008 79.68938965 -56.82275391 78.95385742 C-58.38838214 65.94423233 -63.95286704 53.99729658 -74.15625 45.5625 C-85.53028265 37.41813095 -99.75427117 33.21444096 -113.6875 32.75 C-115.605625 32.67265625 -115.605625 32.67265625 -117.5625 32.59375 C-147.68378537 31.77947781 -179.4523046 39.71189321 -203.8828125 57.78125 C-204.47835938 58.1009375 -205.07390625 58.420625 -205.6875 58.75 C-209.53465696 57.46761435 -210.06598697 55.60760121 -211.84585571 52.12658691 C-212.23961395 51.33200073 -212.63337219 50.53741455 -213.0390625 49.71875 C-213.45739349 48.89483765 -213.87572449 48.07092529 -214.30673218 47.2220459 C-215.65131069 44.56929043 -216.98227124 41.90997572 -218.3125 39.25 C-219.61919576 36.65842715 -220.92868978 34.06828658 -222.23895264 31.47851562 C-223.10513024 29.76478439 -223.96910752 28.04993924 -224.83087158 26.33398438 C-226.94737945 22.13047189 -229.09954424 17.95386728 -231.34277344 13.81640625 C-231.97244522 12.65208069 -231.97244522 12.65208069 -232.61483765 11.4642334 C-233.40756825 10.00647921 -234.20733112 8.55251915 -235.01528931 7.10314941 C-236.90387414 3.62996189 -237.6875 1.79541938 -237.6875 -2.25 C-235.5922025 -3.88802779 -233.67524655 -5.14593621 -231.375 -6.4375 C-230.70202881 -6.82478271 -230.02905762 -7.21206543 -229.33569336 -7.61108398 C-164.2046682 -44.40747587 -58.36467153 -55.85174817 0 0 Z M-158.21875 152.84765625 C-164.78316249 161.34996711 -165.44273534 170.34453525 -164.6875 180.75 C-162.53876209 189.71864521 -157.97008798 195.39476328 -150.4375 200.4375 C-134.48306112 210.0440189 -114.89663778 210.34508185 -97.125 206.125 C-81.53164683 201.61198596 -68.53824166 192.4664479 -59.6875 178.75 C-59.00026855 177.70980713 -58.31303711 176.66961426 -57.60498047 175.59790039 C-54.40892815 169.14774985 -55.26880045 161.76376325 -55.4375 154.75 C-55.45759664 153.29299331 -55.47584182 151.83595985 -55.4921875 150.37890625 C-55.53593099 146.8353745 -55.60478233 143.29286123 -55.6875 139.75 C-64.96368969 139.68005187 -74.23978661 139.62696368 -83.51618385 139.59456348 C-87.82501257 139.5790019 -92.13365897 139.55794073 -96.44238281 139.52368164 C-100.61158376 139.49074474 -104.78061094 139.4730758 -108.9499321 139.46536827 C-110.52930812 139.45988562 -112.10867617 139.44918231 -113.68797684 139.43280983 C-129.65430506 139.27408574 -146.66707211 140.39690909 -158.21875 152.84765625 Z " fill="#0E4F46" transform="translate(1970.6875,462.25)"/>
<path d="M0 0 C1.30130859 1.05767578 1.30130859 1.05767578 2.62890625 2.13671875 C14.0264218 11.78625852 22.09721851 23.88644519 29 37 C29.40089844 37.72960937 29.80179688 38.45921875 30.21484375 39.2109375 C31 41 31 41 31 44 C30.41847168 44.30067383 29.83694336 44.60134766 29.23779297 44.91113281 C12.77345802 53.43483273 -3.55357433 62.18378755 -19.75390625 71.19921875 C-20.67727783 71.71154053 -21.60064941 72.2238623 -22.55200195 72.75170898 C-24.3144057 73.73043234 -26.07475892 74.71285979 -27.83276367 75.69946289 C-28.61498291 76.13379639 -29.39720215 76.56812988 -30.203125 77.015625 C-30.89051758 77.40008789 -31.57791016 77.78455078 -32.28613281 78.18066406 C-34 79 -34 79 -36 79 C-37.25190923 77.252731 -38.42534833 75.44903722 -39.5625 73.625 C-50.8421383 56.38094864 -65.9740952 45.05564805 -86.2890625 40.5234375 C-106.25889886 36.66759013 -126.88852793 40.28584018 -144.22265625 51.05859375 C-161.46458275 63.11096712 -171.78891667 80.05058853 -175.6875 100.62890625 C-179.53570821 126.25690399 -175.82816268 150.20202136 -161.1953125 171.64453125 C-149.82642474 186.9996058 -132.07497554 195.39551338 -113.5859375 198.58984375 C-93.08226414 200.93503515 -72.73566289 196.96860869 -56.00390625 184.4453125 C-47.58609177 177.59283933 -41.73307926 169.09169517 -36 160 C-32.24363907 160.59077541 -29.3982864 161.65975166 -26.0703125 163.484375 C-25.12148193 164.00104736 -24.17265137 164.51771973 -23.19506836 165.05004883 C-22.1819458 165.61103271 -21.16882324 166.1720166 -20.125 166.75 C-19.06869385 167.32838623 -18.0123877 167.90677246 -16.92407227 168.50268555 C-8.59707811 173.07712118 -0.3252917 177.74862015 7.93334961 182.44506836 C15.55004763 186.77036222 23.23832769 190.94136882 31 195 C28.56143394 212.90508777 9.13512922 231.8737556 -4.35375977 242.27392578 C-39.37279918 268.37927382 -85.62286469 275.41653435 -128.2421875 269.74609375 C-165.29492955 264.18428215 -198.40836918 249.74218499 -225 223 C-225.79664063 222.20335937 -226.59328125 221.40671875 -227.4140625 220.5859375 C-256.51686558 189.83774626 -266.27566649 149.7047223 -265.15234375 108.40576172 C-263.72743656 76.55086549 -252.0066068 46.074115 -231 22 C-230.16855469 21.03578125 -229.33710937 20.0715625 -228.48046875 19.078125 C-218.49729441 7.71614926 -207.02116729 -1.34825349 -194 -9 C-192.96625244 -9.61125732 -192.96625244 -9.61125732 -191.91162109 -10.23486328 C-135.53875724 -43.03384988 -51.05140861 -43.34817823 0 0 Z " fill="#165843" transform="translate(1650,458)"/>
<path d="M0 0 C5.61 0 11.22 0 17 0 C17 40.92 17 81.84 17 124 C11.72 124 6.44 124 1 124 C0.67 120.04 0.34 116.08 0 112 C-0.66 112.721875 -1.32 113.44375 -2 114.1875 C-10.38336012 122.45377409 -20.3978737 125.25351233 -32 125.4375 C-42.92655315 125.35414993 -51.46852844 121.66622588 -60 115 C-60.61617187 114.52175781 -61.23234375 114.04351562 -61.8671875 113.55078125 C-69.2939401 106.99873507 -74.11473049 96.75929644 -75 87 C-75.85730179 72.67884395 -74.44930044 61.24847723 -65.328125 49.54296875 C-57.56659616 41.06519145 -47.96676793 35.31899307 -36.3984375 34.66015625 C-34.72430189 34.61314464 -33.04969692 34.58067501 -31.375 34.5625 C-30.58738281 34.5521875 -29.79976562 34.541875 -28.98828125 34.53125 C-19.06286274 34.68037983 -9.49657094 38.40301758 -2 45 C-2 45.66 -2 46.32 -2 47 C-1.34 47 -0.68 47 0 47 C0 31.49 0 15.98 0 0 Z " fill="#F9FAFA" transform="translate(3277,110)"/>
<path d="M0 0 C5.28 0 10.56 0 16 0 C16.33 3.63 16.66 7.26 17 11 C18.258125 9.9275 19.51625 8.855 20.8125 7.75 C31.87759423 -0.66835101 43.52729983 -1.27633046 57 0 C65.7592119 1.52729907 72.31854023 6.24366947 78 13 C82.01529959 19.8306246 84.12984402 26.15549468 84.11352539 34.05371094 C84.11341209 35.88515656 84.11341209 35.88515656 84.11329651 37.75360107 C84.10813522 39.06725647 84.10297394 40.38091187 84.09765625 41.734375 C84.09579021 43.0962926 84.09436718 44.45821088 84.09336853 45.82012939 C84.08955803 49.39741889 84.07974032 52.97466752 84.06866455 56.55194092 C84.05841884 60.20519457 84.05386415 63.85845486 84.04882812 67.51171875 C84.03811669 74.67449992 84.02053182 81.83723902 84 89 C78.72 89 73.44 89 68 89 C67.99589111 87.32566895 67.99178223 85.65133789 67.98754883 83.92626953 C67.96805457 78.3580938 67.92559369 72.79040047 67.86790943 67.22249031 C67.83380008 63.8507126 67.80855488 60.47938019 67.80444336 57.10742188 C67.79511117 53.2194882 67.75402167 49.33295178 67.70703125 45.4453125 C67.7109639 44.25011993 67.71489655 43.05492737 67.71894836 41.82351685 C67.56827395 33.07574874 65.83283898 26.04001947 59.6875 19.5625 C52.20439403 15.211857 45.16766118 13.62940863 36.57421875 15.5390625 C29.08468219 17.82997957 24.16253749 21.07902161 20.078125 27.8046875 C16.75110854 34.5792645 16.66191737 40.7578385 16.5859375 48.1796875 C16.56657135 49.3475882 16.5472052 50.51548889 16.5272522 51.71878052 C16.46762339 55.43744678 16.42113726 59.15614428 16.375 62.875 C16.33680491 65.40105493 16.29775229 67.92709705 16.2578125 70.453125 C16.16193532 76.63531224 16.07784216 82.81756044 16 89 C10.72 89 5.44 89 0 89 C0 59.63 0 30.26 0 0 Z " fill="#FCFCFC" transform="translate(3380,145)"/>
<path d="M0 0 C-1.68673918 4.49797113 -3.81673892 8.72886302 -6 13 C-9.91041952 12.38899695 -13.37580256 11.16799899 -17.03515625 9.71875 C-21.97361378 7.91223671 -26.54128321 7.7840439 -31.75 7.75 C-32.5234375 7.729375 -33.296875 7.70875 -34.09375 7.6875 C-40.29959532 7.64585003 -46.15707065 8.51243682 -51 12.75 C-52.48404664 16.08910495 -52.50688503 18.38844414 -52 22 C-47.9762376 27.71114663 -41.98411262 29.20759221 -35.40014648 30.51708984 C-32.66527649 30.96777441 -29.92695695 31.39067844 -27.1875 31.8125 C-17.44882393 33.45904575 -7.80426318 35.38306018 -0.875 43.0625 C3.10374053 49.29586016 3.82846158 54.70749249 3 62 C0.29378597 70.67451307 -6.25157806 75.81952729 -14 80 C-28.4881767 85.91354151 -47.62869764 84.38706618 -62 79 C-65.1869462 77.59412116 -68.28223942 76.20042037 -71 74 C-72 71 -72 71 -70.78515625 68.30078125 C-70.21667969 67.31464844 -69.64820312 66.32851562 -69.0625 65.3125 C-68.49660156 64.31863281 -67.93070313 63.32476562 -67.34765625 62.30078125 C-66.90292969 61.54152344 -66.45820313 60.78226562 -66 60 C-63.31117066 61.0725386 -60.62676339 62.15340455 -57.94921875 63.25390625 C-51.93636217 65.66624991 -46.50014812 67.82304497 -40 68 C-38.99066406 68.05027344 -37.98132812 68.10054688 -36.94140625 68.15234375 C-29.65289508 68.36299436 -22.29405846 68.30837686 -16.28125 63.67578125 C-14.62649959 61.5114888 -14.59798089 60.20191143 -14.625 57.5 C-14.61726563 56.7265625 -14.60953125 55.953125 -14.6015625 55.15625 C-15.10144514 52.45100279 -15.80917871 51.63457713 -18 50 C-23.79779298 47.65138328 -30.18733862 46.76181801 -36.31420898 45.61962891 C-59.4236704 41.2622749 -59.4236704 41.2622749 -65.9140625 32.74609375 C-66.27242187 32.16988281 -66.63078125 31.59367187 -67 31 C-67.36996094 30.41863281 -67.73992188 29.83726562 -68.12109375 29.23828125 C-70.35797162 23.54169895 -70.10707664 15.2273261 -68.125 9.44921875 C-63.22905905 1.15510826 -55.27845959 -3.8767916 -46.17382812 -6.53271484 C-30.95153786 -9.80489179 -13.65003606 -7.16370313 0 0 Z " fill="#F9FAFA" transform="translate(3611,152)"/>
<path d="M0 0 C5.57632971 4.80408437 10.22374864 10.57703057 11.29858398 18.0859375 C11.43780688 20.3376728 11.46761826 22.5567381 11.4375 24.8125 C11.42992676 25.60567627 11.42235352 26.39885254 11.41455078 27.21606445 C11.17092083 35.90405071 8.83019656 43.00497922 2.84375 49.46484375 C-4.34264195 55.44842858 -12.54845889 57.49570578 -21.6953125 57.40625 C-28.87261485 56.52393387 -35.56927353 52.98988927 -40.5 47.6875 C-47.01403907 39.04054548 -48.90606027 29.62322837 -48 19 C-46.09190058 10.62623887 -41.05212101 3.31316631 -33.84375 -1.4140625 C-22.77615625 -7.15434433 -10.65553283 -6.47748188 0 0 Z " fill="#165746" transform="translate(3266,164)"/>
<path d="M0 0 C0.88929199 0.00563965 1.77858398 0.0112793 2.69482422 0.01708984 C8.94549408 0.1329492 14.47557816 0.58565124 20.1875 3.3125 C21.03441406 3.7146875 21.88132812 4.116875 22.75390625 4.53125 C29.17346788 7.97542613 33.15285346 12.30060946 37.1875 18.3125 C33.71035451 21.92690123 30.73527465 24.2010332 26.1875 26.3125 C23.19250663 25.25237662 21.2534931 23.56172293 19 21.375 C12.43403518 15.69745326 5.06728407 14.61624093 -3.4609375 14.8359375 C-10.66970119 15.86095984 -17.28898435 19.26199853 -22.3125 24.5625 C-28.11692363 32.4104929 -30.00701859 40.67102852 -28.8125 50.3125 C-26.93543485 58.90692752 -24.01298315 65.79344515 -16.6015625 70.80859375 C-8.83247654 75.36422057 -0.85513096 76.70566214 8 74.6640625 C14.00110331 72.71370393 18.07497522 70.17119226 22.43359375 65.60546875 C24.1875 64.3125 24.1875 64.3125 26.11328125 64.421875 C28.60742548 65.49280699 30.70476525 66.83178628 32.9375 68.375 C33.73671875 68.92285156 34.5359375 69.47070312 35.359375 70.03515625 C35.96265625 70.45667969 36.5659375 70.87820312 37.1875 71.3125 C30.87613892 82.0944085 21.74760189 86.4591327 10.1875 90.3125 C-5.41803422 91.61807138 -17.84544516 89.52358034 -30.8125 80.3125 C-38.86346715 73.13982018 -44.92085393 63.030161 -46.03369141 52.14990234 C-46.73866464 38.07743663 -45.03121326 26.50225217 -35.8125 15.3125 C-25.93815192 4.83166605 -14.32837767 -0.09442538 0 0 Z " fill="#FAFBFB" transform="translate(3727.8125,144.6875)"/>
</svg>
